<svg width="330" height="506" viewBox="0 0 330 506" fill="none" xmlns="http://www.w3.org/2000/svg">
<g clip-path="url(#clip0_93_291)">
<path d="M322.995 373.149C323.054 382.886 323.025 392.618 323.031 402.355C323.031 403.491 322.89 404.545 322.472 405.64C321.797 407.397 321.468 408.181 319.423 406.595C317.755 405.3 317.32 407.889 316.38 408.761C316.057 409.054 316.292 409.868 316.098 410.377C315.728 411.337 316.128 413.188 313.842 411.864C312.638 411.168 311.78 413.463 310.341 413.539C308.39 413.633 308.561 414.675 308.837 416.186C309.095 417.562 307.721 418.211 306.669 418.779C305.218 419.564 303.291 419.131 302.045 420.571C301.752 420.911 301.299 420.606 301.005 420.296C299.272 418.487 298.879 419.792 298.826 421.315C298.773 422.79 298.109 423.335 296.717 423.259C296.071 423.224 295.424 423.253 294.778 423.259C291.729 423.282 291.071 423.92 291.042 426.901C291.042 427.469 291.001 428.037 291.053 428.593C291.218 430.35 290.484 431.152 288.68 431C287.799 430.923 286.906 430.988 286.019 430.988C285.173 430.988 284.015 431.199 283.939 431.901C283.633 434.642 281.137 434.765 279.539 435.971C278.857 436.486 278.287 436.972 277.388 436.515C276.93 436.281 276.313 436.222 276.119 436.755C275.585 438.248 274.404 438.717 273.023 439.045C272.424 439.185 272.136 439.695 272.154 440.339C272.218 442.669 270.703 443.77 268.74 443.975C265.615 444.303 263.242 445.778 261.485 448.191C260.034 450.182 257.543 450.223 255.81 451.61C255.651 451.739 255.258 451.815 255.122 451.716C252.96 450.076 250.464 451.862 249.976 452.799C248.707 455.258 245.241 455.691 244.947 458.76C244.865 459.638 244.219 459.948 243.402 459.96C242.286 459.972 241.493 460.92 240.582 461.125C237.827 461.734 236.522 464.627 233.761 465.13C232.956 465.277 232.416 465.944 231.952 466.647C230.847 468.31 229.39 469.34 227.316 469.727C225.513 470.06 224.091 471.723 222.029 471.46C221.853 471.436 221.535 471.671 221.459 471.858C220.137 475.008 217.699 475.717 214.433 476.25C212.03 476.648 209.122 477.983 207.653 480.735C206.883 482.175 205.403 482.638 203.905 483.352C199.434 485.489 194.047 486.051 190.81 490.507C189.641 492.117 187.467 492.562 185.822 493.136C180.834 494.893 176.722 498.143 172.592 501.023C169.413 503.237 166.065 502.206 163.145 503.682C159.097 505.725 154.767 505.415 150.455 505.38C149.521 505.374 148.88 505.286 148.387 504.226C147.206 501.685 145.567 501.023 142.9 501.919C141.478 502.394 140.614 502.271 139.692 500.906C138.752 499.519 136.796 499.167 135.392 498.611C133.118 497.709 131.209 495.432 128.318 496.152C127.531 496.351 126.656 495.882 126.144 495.273C122.949 491.485 118.16 490.425 114.095 488.118C109.894 485.735 105.494 483.744 101.258 481.431C99.3137 480.372 97.2634 478.861 94.7783 478.779C93.568 478.744 92.6868 478.006 91.9054 477.157C89.0796 474.077 85.2433 472.678 81.5832 470.956C79.5799 470.019 77.6411 468.924 75.7494 467.789C74.7742 467.203 73.8518 466.471 72.7415 466.313C70.2094 465.956 68.5526 464.41 66.655 462.847C64.2052 460.821 61.162 459.275 58.4008 457.893C55.8687 456.628 53.0722 455.457 50.4226 454.175C45.0001 451.552 40.3002 447.599 34.5251 445.591C33.1093 445.099 31.9049 444.063 30.63 443.284C28.5444 442.008 26.0006 441.849 24.0913 440.099C23.2276 439.308 21.9293 438.84 21.0128 437.915C19.1916 436.076 16.7241 435.549 14.3624 434.893C13.4165 434.636 12.6587 434.173 12.2592 433.424C10.8903 430.847 9.28059 428.482 9.39222 425.209C9.65659 417.491 9.48034 409.762 9.47446 402.039C9.47446 400.991 9.40984 399.937 10.0208 399C13.9394 400.675 17.8815 402.297 21.7589 404.053C22.8987 404.569 23.7329 404.797 24.6435 403.714C27.1345 400.768 30.1307 401.477 33.0329 402.83C41.2871 406.682 49.4827 410.664 57.7252 414.534C79.6092 424.805 101.511 435.046 123.413 445.298C126.103 446.557 128.8 447.804 131.491 449.057C132.413 449.491 133.13 449.965 131.978 450.954C129.74 452.875 130.263 456.201 133.212 456.827C138.235 457.893 142.4 460.774 147.042 462.624C149.961 463.784 152.805 465.165 155.548 466.688C157.264 467.648 158.844 467.203 160.072 466.354C165.976 462.273 172.357 458.988 178.443 455.223C181.333 453.431 181.398 451.423 178.878 449.315C177.562 448.214 176.146 447.482 174.689 446.709C172.744 445.679 172.756 444.953 174.724 443.782C181.351 439.841 187.996 435.912 194.628 431.983C194.987 431.808 195.363 431.661 195.703 431.456C204.763 426.145 213.763 420.753 222.881 415.547C229.243 411.917 235.353 407.889 241.916 404.557C247.32 401.817 252.255 398.163 257.555 395.194C262.748 392.284 267.8 389.157 272.882 386.072C276.419 383.923 280.15 382.072 283.304 379.326C283.31 379.32 283.322 379.315 283.328 379.309L283.304 379.338C284.327 379.133 285.243 378.741 285.889 377.868C290.401 376.44 293.885 373.184 298.027 371.082C299.654 370.256 301.117 369.12 302.656 368.131H303.614C303.79 368.143 303.966 368.16 304.149 368.172C306.434 369.074 308.702 370.04 311.022 370.848C312.773 371.457 314.377 372.71 316.415 372.23C318.619 371.041 320.822 369.852 323.025 368.658C323.683 370.157 322.989 371.65 322.995 373.149Z" stroke="black" stroke-width="2" stroke-miterlimit="10"/>
<path d="M149.053 249.355L149.047 249.361C149.111 249.396 149.176 249.432 149.241 249.473C149.182 249.432 149.117 249.391 149.053 249.355Z" stroke="black" stroke-width="2" stroke-miterlimit="10"/>
<path d="M83.0789 43.7508C82.4855 43.663 81.8981 43.5693 81.3047 43.4697C81.8981 43.5693 82.4855 43.6688 83.0789 43.7566H83.0848C83.3727 43.7449 83.6547 43.7566 83.9249 43.7976C83.6547 43.7508 83.3727 43.7391 83.0789 43.7508ZM94.2295 46.6433C93.7654 46.614 93.3013 46.5789 92.8372 46.5438C93.3013 46.5789 93.7654 46.614 94.2295 46.6492H94.2354C94.6349 46.6726 95.0402 46.6667 95.4397 46.6902C95.0402 46.6609 94.629 46.6667 94.2295 46.6433ZM110.221 50.502C108.635 50.2736 107.049 50.0394 105.468 49.8052C107.049 50.0394 108.635 50.2736 110.221 50.5078C110.28 50.4903 110.339 50.4727 110.397 50.461C110.339 50.4727 110.28 50.4844 110.221 50.502ZM112.16 51.0172C111.854 50.988 111.555 50.9528 111.249 50.9236C111.555 50.9528 111.854 50.988 112.16 51.0231H112.166C112.483 51.0465 112.8 51.0758 113.111 51.1051C112.794 51.0699 112.477 51.0407 112.16 51.0172Z" stroke="black" stroke-width="2" stroke-miterlimit="10"/>
<path d="M223.704 32.9656C223.574 26.6477 221.747 24.5105 215.608 23.1463C199.775 19.6272 183.948 16.0672 168.115 12.5481C151.724 8.91195 135.345 5.22309 118.913 1.79187C116.757 1.34101 114.542 -0.169668 112.139 1.0541C111.169 1.01896 110.247 1.17706 109.301 1.45811C102.862 3.34939 96.4352 5.29335 89.9375 7.00897C87.8402 7.56522 85.4784 7.60035 83.669 9.10517C81.2309 9.35695 79.0924 10.4695 76.9246 11.4707C63.7354 17.5544 50.5521 23.644 37.3746 29.7628C36.0821 30.3659 34.7015 31.0041 34.5664 32.7431C41.5869 33.557 48.3078 35.7528 55.1756 37.2693C60.4219 38.4287 65.5977 39.8866 70.8088 41.1924C71.9661 41.4851 73.1235 41.7662 74.2867 42.0355C74.8683 42.1702 75.45 42.3049 76.0316 42.4279C76.6132 42.5567 77.2007 42.6855 77.7823 42.8026C78.9514 43.0427 80.1264 43.2652 81.3014 43.4701C81.8947 43.5696 82.4822 43.6633 83.0756 43.7512C83.3694 43.7394 83.6513 43.7512 83.9216 43.798C84.0215 43.8097 84.1213 43.8331 84.2212 43.8566C84.5208 43.9327 84.8087 44.0556 85.079 44.2254C85.1318 44.2606 85.1788 44.2898 85.2258 44.3308C85.267 44.366 85.3081 44.3952 85.3551 44.4304C85.4256 44.4831 85.4961 44.5475 85.5666 44.6177C85.8662 44.6412 86.1717 44.6704 86.4772 44.6939C87.0588 44.5651 87.6287 44.4948 87.9753 45.1447C88.6744 45.051 89.303 45.2267 89.8788 45.6249C91.0126 45.4609 92.0584 45.578 92.8338 46.5442C93.298 46.5793 93.7621 46.6144 94.2262 46.6437C94.6257 46.6671 95.0369 46.6613 95.4364 46.6905C95.5422 46.6964 95.6538 46.7022 95.7595 46.7198C95.8535 46.7257 95.9475 46.7432 96.0357 46.7608C96.0944 46.7667 96.1473 46.7784 96.2002 46.7959C96.2707 46.8135 96.3353 46.8311 96.4058 46.8545C96.488 46.8779 96.5644 46.9072 96.6408 46.9423C96.6937 46.9657 96.7465 46.9892 96.7994 47.0184C96.864 47.0477 96.9228 47.0887 96.9874 47.1297C97.052 47.1707 97.1167 47.2175 97.1754 47.2761C97.2107 47.3053 97.24 47.3288 97.2694 47.358C97.2988 47.3873 97.3282 47.4107 97.3575 47.4459C97.4163 47.5103 97.475 47.5805 97.5279 47.6508C97.5808 47.7269 97.6336 47.803 97.6865 47.8909L101.987 48.5584C103.262 48.6462 104.625 48.4998 105.465 49.8056C107.045 50.0398 108.631 50.274 110.218 50.5024C110.276 50.4848 110.335 50.4731 110.394 50.4614C110.453 50.4497 110.506 50.4497 110.558 50.4497C110.6 50.4497 110.647 50.4555 110.688 50.4614C110.923 50.4965 111.111 50.6429 111.246 50.9239C111.551 50.9532 111.851 50.9883 112.156 51.0176C112.474 51.041 112.791 51.0703 113.108 51.1055C113.425 51.1406 113.737 51.1816 114.048 51.2284C114.365 51.2753 114.671 51.328 114.982 51.3865C115.887 51.5622 116.768 51.7964 117.638 52.1126C117.808 52.1711 117.973 52.2297 118.143 52.2999C118.307 52.3585 118.466 52.4288 118.631 52.499C118.748 52.5517 118.866 52.6044 118.983 52.6571C119.148 52.7332 119.312 52.8094 119.471 52.8913C119.776 52.9148 120.082 52.944 120.393 52.9674C121.456 53.19 122.784 52.7742 123.372 54.1736C123.994 54.2381 124.623 54.2966 125.246 54.361C126.926 54.6304 128.624 54.8353 130.157 55.6668C133.277 56.9549 136.837 56.8085 139.816 58.5651C143.364 54.6128 148.634 53.4242 152.781 50.5082C155.772 48.412 159.115 47.1414 162.228 45.3848C165.136 43.7453 168.473 42.8787 171.564 41.5261C175.3 39.8925 178.978 38.1242 182.661 36.3793C185.317 35.1263 189.229 37.4333 189.265 40.3258C189.282 42.0121 189.247 43.7043 189.276 45.3906C189.288 46.0289 189.153 46.872 189.5 47.2585C192.132 50.233 191.045 53.7989 191.18 57.1482C191.286 59.9177 191.303 62.6346 190.105 65.3573C189.229 67.3599 189.218 69.784 191.027 71.6752C191.192 71.845 191.462 72.0617 191.45 72.2432C191.068 77.3549 194.852 81.8635 193.624 87.104C193.383 88.117 192.913 88.603 191.879 89.0773C188.701 90.5352 185.235 90.8456 181.945 91.8703C177.486 93.258 177.873 94.0836 177.168 98.4692C177.045 99.2538 177.162 100.062 176.816 100.829C175.611 103.505 176.645 105.642 178.543 107.504C180.164 109.102 181.569 110.818 182.221 113.055C182.485 113.962 183.108 114.495 184.095 114.718C186.639 115.292 189.071 116.498 191.791 116.059C191.985 115.83 192.12 115.573 192.243 115.303C192.443 114.858 192.596 114.39 192.913 113.974C200.174 104.389 207.23 94.6398 214.662 85.1952C217.317 81.8167 218.763 78.3444 218.892 74.152C219.156 65.4803 219.532 56.8144 219.779 48.1485C219.82 46.6086 220.12 45.496 221.741 45.0335C223.187 44.6236 223.698 43.6575 223.662 42.1351C223.586 39.0845 223.768 36.0221 223.704 32.9656ZM125.845 39.4299C125.51 40.2262 124.946 39.102 124.5 38.7507C123.007 37.5855 122.59 38.8678 122.056 39.8574C121.445 40.9757 121.145 42.6386 119.712 40.2145C119.018 39.0493 116.986 39.8749 115.664 39.2777C115.323 39.1196 114.73 39.3831 114.483 39.1781C111.792 36.8946 108.267 37.4625 105.224 36.4261C101.599 35.1907 97.9391 34.6988 94.1616 35.3136C89.3206 36.1041 87.2879 33.8966 87.5699 28.094C88.1633 25.828 88.1633 23.5444 87.7227 21.255C87.4818 19.9844 87.3349 18.7313 87.9812 17.531C88.9858 16.3716 89.2913 14.0998 91.7117 15.1947C92.9337 13.766 94.5846 14.5916 95.7595 14.8727C102.586 16.4887 109.589 17.3378 116.269 19.5745C117.491 19.9844 118.678 20.4704 119.077 21.8874C120.493 22.022 121.004 23.1053 121.503 24.1944C122.561 24.5457 122.344 25.4357 122.367 26.2203C122.749 26.7941 122.943 27.4148 122.878 28.1057C124.406 30.6411 125.287 33.4985 126.944 35.987C127.854 37.3513 126.297 38.3467 125.845 39.4299Z" stroke="black" stroke-width="2" stroke-miterlimit="10"/>
<path d="M160.057 125.866C158.065 126.417 155.703 126.177 154.135 127.623C152.689 128.952 150.921 129.292 149.306 130.094C147.52 130.984 145.07 130.808 144.083 133.086C143.436 132.922 143.078 132.53 143.278 131.856C143.765 130.258 142.914 129.081 142.203 127.646C140.887 129.385 139.747 130.925 138.572 132.448C135.552 136.365 130.312 137.191 127.075 134.28C126.229 133.525 125.953 132.928 127.01 131.973C130.042 129.239 132.515 126.153 132.092 121.703C131.886 119.507 132.339 117.359 132.715 115.256C133.149 112.821 132.697 110.098 134.765 108.008C135.382 107.387 135.241 106.286 133.913 105.777C132.433 105.203 130.97 104.717 129.442 104.295C127.081 103.634 124.613 103.757 122.275 102.726C117.781 100.753 117.346 101.016 114.514 104.752C113.839 105.642 113.263 105.753 112.094 105.455C105.208 103.704 98.5815 100.958 91.4435 100.132C88.224 99.7633 87.8598 98.844 89.5635 96.1213C89.916 95.5533 90.5857 95.1727 91.232 94.6047C88.3709 93.2931 85.5568 92.7661 82.6957 92.4207C82.543 91.4487 81.7851 91.1676 80.9802 90.9861C70.1998 88.5269 59.5603 85.5524 48.9091 82.6013C46.2301 81.8577 43.5981 80.751 40.7253 80.9267H40.7194C40.4139 80.7803 40.1672 80.6105 39.9674 80.4173C39.7677 80.224 39.6149 80.0074 39.5033 79.779C39.1156 79.012 39.1332 78.0751 39.1097 77.1968C38.8629 69.3156 38.6867 61.4401 38.4693 53.5589C38.4282 52.1126 38.1756 50.6722 38.2226 49.2318C38.2755 47.645 38.0698 46.4622 36.1429 46.228C35.6082 46.1636 34.727 45.8825 34.7094 45.1213C34.6213 40.9933 33.4463 36.877 34.5684 32.7432C41.5889 33.5571 48.3098 35.7528 55.1776 37.2693C60.4239 38.4287 65.5997 39.8867 70.8107 41.1924C71.9681 41.4852 73.1255 41.7662 74.2887 42.0356C74.8703 42.1702 75.4519 42.3049 76.0335 42.4279C76.6152 42.5567 77.2027 42.6855 77.7843 42.8026C78.9534 43.0427 80.1284 43.2652 81.3034 43.4701C81.8967 43.5697 82.4842 43.6634 83.0776 43.7512V43.757H83.0834C83.3361 44.1903 83.6298 44.5065 83.9764 44.6822C84.0998 44.7466 84.2349 44.7934 84.3701 44.8169C84.7226 44.8871 85.1162 44.8286 85.5685 44.6178C85.8682 44.6412 86.1737 44.6705 86.4792 44.6939C86.7494 45.5898 87.2488 45.7537 87.9773 45.1448C88.6764 45.0511 89.305 45.2267 89.8807 45.6249C90.6092 46.7491 91.5316 47.2527 92.8358 46.5442C93.2999 46.5793 93.7641 46.6144 94.2282 46.6437V46.6496H94.234C94.3163 46.8252 94.4044 46.9775 94.5043 47.1063C95.2739 48.1661 96.5253 47.9143 97.6885 47.8909L101.989 48.5584C102.847 49.8056 104.216 49.6416 105.467 49.8056C107.047 50.0398 108.633 50.274 110.22 50.5024V50.5082C110.39 51.0645 110.602 51.5212 111.248 50.924C111.553 50.9532 111.853 50.9884 112.158 51.0176V51.0235H112.164C112.987 51.7496 113.868 52.2473 114.802 52.5635C115.031 52.6396 115.266 52.7098 115.507 52.7625C115.742 52.8211 115.989 52.8679 116.23 52.9031C117.27 53.0553 118.356 53.0319 119.473 52.8914C119.778 52.9148 120.084 52.9441 120.395 52.9675C121.012 54.2849 122.187 54.2439 123.374 54.1737C123.996 54.2381 124.625 54.2966 125.248 54.361C126.628 55.737 128.244 56.264 130.159 55.6668C133.279 56.955 136.839 56.8086 139.818 58.5652C139.647 63.9462 139.571 69.3097 139.118 74.7142C138.331 83.9656 138.883 93.3341 138.919 102.656C138.919 103.347 138.39 104.576 139.524 104.629C140.458 104.67 140.787 103.599 140.822 102.621C140.875 101.233 140.587 99.8101 141.051 98.3463C142.162 98.8089 142.32 99.6227 142.238 100.39C141.956 103.118 143.912 103.587 145.845 103.909C146.662 104.044 147.561 103.575 148.436 103.528C149.711 103.452 151.256 103.282 151.426 105.068C151.785 108.857 153.729 111.216 157.354 112.282C158 112.469 158.582 112.973 158.635 113.623C158.905 116.867 161.008 119.449 161.796 122.517C162.271 124.356 162.095 125.304 160.057 125.866Z" stroke="black" stroke-width="2" stroke-miterlimit="10"/>
<path d="M193.627 87.1041C193.387 88.1171 192.917 88.6031 191.883 89.0773C188.704 90.5353 185.238 90.8456 181.948 91.8703C177.489 93.258 177.877 94.0836 177.172 98.4693C177.048 99.2539 177.166 100.062 176.819 100.829C175.615 103.505 176.649 105.642 178.547 107.504C180.168 109.103 181.572 110.818 182.224 113.055C182.489 113.962 183.111 114.495 184.098 114.718C186.642 115.292 189.074 116.498 191.794 116.059C191.53 125.24 191.26 134.427 190.99 143.608C190.05 143.549 189.104 143.672 188.164 143.315C186.484 142.677 185.514 143.772 185.068 145.078C184.733 146.061 184.609 147.262 185.191 148.316C185.262 149.188 186.078 150.429 184.733 150.74C183.493 151.027 183.058 149.797 182.782 148.749C182.565 147.947 182.342 147.145 182.124 146.348C181.461 148.462 181.872 150.318 183.446 151.852C178.57 154.382 173.394 155.582 168.524 157.561C167.038 158.17 166.156 157.655 165.205 156.601C160.264 151.144 155.2 145.798 150.353 140.259C148.261 137.876 145.483 136.072 144.084 133.086C145.071 130.808 147.521 130.984 149.307 130.094C150.923 129.292 152.691 128.952 154.136 127.623C155.705 126.177 158.067 126.417 160.058 125.866C162.097 125.304 162.273 124.356 161.797 122.517C161.01 119.449 158.907 116.867 158.636 113.623C158.584 112.973 158.002 112.469 157.356 112.282C153.731 111.216 151.786 108.857 151.428 105.068C151.258 103.282 149.712 103.452 148.438 103.528C147.562 103.575 146.663 104.044 145.847 103.909C143.914 103.587 141.958 103.118 142.24 100.39C142.322 99.6228 142.163 98.8089 141.053 98.3463C140.589 99.8102 140.877 101.233 140.824 102.621C140.788 103.599 140.459 104.67 139.525 104.629C138.391 104.576 138.92 103.347 138.92 102.656C138.885 93.3342 138.333 83.9656 139.12 74.7142C139.572 69.3097 139.649 63.9463 139.819 58.5652C143.368 54.6129 148.637 53.4242 152.785 50.5083C155.775 48.4121 159.118 47.1415 162.232 45.3849C165.14 43.7454 168.477 42.8788 171.567 41.5262C175.304 39.8926 178.981 38.1243 182.665 36.3794C185.32 35.1263 189.233 37.4333 189.268 40.3259C189.286 42.0122 189.251 43.7044 189.28 45.3907C189.292 46.029 189.157 46.8721 189.503 47.2586C192.135 50.2331 191.048 53.799 191.184 57.1482C191.289 59.9178 191.307 62.6347 190.108 65.3574C189.233 67.3599 189.221 69.784 191.031 71.6753C191.195 71.8451 191.465 72.0617 191.454 72.2433C191.072 77.355 194.855 81.8636 193.627 87.1041Z" stroke="black" stroke-width="2" stroke-miterlimit="10"/>
<path d="M323.912 225.202C320.293 217.707 315.07 212.034 306.575 210.095C305.929 210.277 305.612 209.92 305.406 209.387C304.654 209.352 303.908 209.323 303.162 209.287C302.351 210.084 301.329 209.668 300.401 209.732C296.899 209.972 293.421 210.295 290.196 211.829C289.274 212.268 288.287 212.326 287.376 211.957C284.82 210.921 282.124 210.605 279.439 210.195C278.969 210.125 278.382 210.043 278.1 209.738C275.127 206.494 270.803 206.184 267.025 204.867C263.301 203.573 259.359 202.917 255.628 201.465C254.394 200.985 252.696 201.108 251.216 201.072C245.682 200.932 241.446 197.354 236.523 195.615C234.613 194.948 234.696 192.424 233.386 190.966C232.246 189.69 230.806 188.612 229.978 187.049C227.851 186.446 226.4 184.508 224.162 184.139C223.463 184.853 223.316 184.215 223.116 183.717C222.652 183.688 222.194 183.664 221.73 183.635C216.301 184.683 211.437 182.804 206.467 180.989C203.999 180.087 201.984 178.266 199.34 177.827C198.23 177.645 198.724 176.978 198.994 176.41C199.117 173.371 199.44 170.32 199.299 167.299C199.194 165.045 200.04 163.914 202.078 163.323C203.142 163.013 204.369 162.667 204.211 161.151C203.923 158.393 205.262 156.484 207.201 154.698C209.616 152.473 209.122 150.225 206.114 148.907C205.38 148.585 204.64 148.246 203.794 148.433C203.888 149.247 203.923 150.049 203.236 150.664C201.162 152.502 199.076 154.329 196.92 156.238C196.221 155.003 196.191 153.902 195.998 152.824C195.721 151.279 193.542 150.441 192.191 151.279C191.004 151.806 190.563 152.655 191.456 153.714C192.39 154.821 191.48 156.203 192.226 157.415C192.62 158.047 191.004 157.831 190.716 158.557C192.766 159.131 194.588 160.085 195.951 161.771C197.901 164.201 197.942 167.024 195.298 169.114C193.137 170.824 190.916 173.336 187.491 172.153C185.164 171.351 184.095 169.436 183.337 167.275C179.554 168.523 175.759 169.746 171.993 171.046C171.147 171.339 170.348 171.679 169.437 171.608C169.637 169.94 168.662 169.19 167.081 168.745C168.714 168.61 169.707 167.556 170.859 166.772C171.205 166.122 171.946 165.671 171.875 164.81C171.846 164.752 171.816 164.693 171.799 164.629C171.787 164.6 171.775 164.57 171.769 164.535C171.764 164.506 171.758 164.471 171.752 164.441C171.135 164.219 170.518 164.002 169.684 163.704C169.549 163.651 169.402 163.604 169.255 163.551C169.102 163.499 168.944 163.44 168.773 163.382C173.902 160.003 179.624 158.82 184.818 156.49C186.216 155.067 187.15 153.451 186.839 151.367C186.692 150.4 187.614 150.072 187.949 149.405C187.256 148.48 186.21 148.439 185.188 148.316C185.258 149.188 186.075 150.43 184.73 150.74C183.49 151.027 183.055 149.797 182.779 148.749C182.562 147.947 182.338 147.145 182.121 146.348C181.457 148.462 181.868 150.318 183.443 151.852C178.567 154.382 173.391 155.582 168.521 157.561C167.034 158.17 166.153 157.655 165.201 156.601C160.26 151.144 155.196 145.798 150.349 140.259C148.258 137.876 145.479 136.072 144.081 133.086C143.435 132.922 143.076 132.53 143.276 131.857C143.764 130.258 142.912 129.081 142.201 127.647C140.885 129.386 139.745 130.926 138.57 132.448C135.551 136.365 130.31 137.191 127.073 134.281C126.227 133.525 125.951 132.928 127.008 131.974C130.04 129.239 132.513 126.153 132.09 121.703C131.885 119.508 132.337 117.359 132.713 115.257C133.148 112.821 132.695 110.098 134.763 108.008C135.38 107.387 135.239 106.286 133.911 105.777C132.431 105.203 130.968 104.717 129.441 104.296C127.079 103.634 124.611 103.757 122.273 102.726C117.779 100.753 117.344 101.017 114.512 104.752C113.837 105.642 113.261 105.753 112.092 105.455C105.207 103.704 98.5797 100.958 91.4417 100.132C88.2222 99.7635 87.858 98.8442 89.5617 96.1215C89.9142 95.5535 90.584 95.1729 91.2302 94.6049C88.3691 93.2933 85.555 92.7664 82.6939 92.4209C79.968 95.3896 78.1703 98.9027 76.6193 102.568C76.3314 103.253 76.2198 104.143 75.3562 104.483C74.7158 106.614 74.1166 108.687 71.9722 109.993C70.7502 110.736 70.1627 112.124 71.185 113.541C71.7255 114.296 71.8723 115.14 72.1426 115.977C72.924 118.383 74.2106 119.039 76.7544 118.518C80.6436 117.722 84.3213 117.704 87.7816 120.263C89.9965 121.897 92.7871 122.388 95.5541 122.629C96.7467 122.734 97.9629 122.213 99.132 122.804C100.988 122.605 102.487 123.718 104.073 124.344C105.312 124.836 105.418 124.555 105.518 123.513C105.706 121.575 106.434 119.812 107.421 118.155C107.668 117.739 108.021 117.294 107.739 116.826C107.445 116.334 106.875 116.457 106.423 116.574C103.603 117.324 101.141 116.293 98.9263 114.806C95.7656 112.674 92.3641 111.925 88.6217 112.142C86.9591 112.235 85.2789 112.446 83.6398 111.685C82.2768 111.058 82.2181 109.928 82.8291 109.068C84.3272 106.948 85.3083 104.594 86.3716 102.275C87.0414 100.823 87.9579 100.29 89.6499 100.776C91.6414 101.344 93.8093 101.309 95.7656 101.948C100.753 103.581 105.677 105.402 110.829 106.509C112.644 106.901 112.809 108.265 111.922 109.776C110.118 112.874 110.189 113.254 112.956 115.467C113.954 116.264 115.118 116.832 115.964 117.856C116.704 118.764 116.845 119.66 116.087 120.445C115.182 121.387 114.689 120.21 114.172 119.771C113.061 118.84 112.098 118.547 111.187 119.964C112.157 120.216 112.791 120.726 112.662 121.832C112.85 121.85 113.032 121.861 113.214 121.873C113.99 121.662 114.753 121.698 114.648 122.722C114.559 123.565 114.001 123.964 113.179 123.284C112.985 125.17 114.56 123.554 115.059 124.327C113.884 126.148 112.051 127.377 110.165 128.302C108.996 128.882 108.279 129.116 108.779 130.557C108.99 131.154 108.808 131.857 107.98 132.061C112.157 136.523 116.34 140.985 120.517 145.447C121.862 146.612 122.826 147.801 121.574 149.68C120.899 150.693 122.538 151.448 122.056 152.778C121.521 154.236 121.21 154.95 119.442 154.458C115.018 153.223 115 153.305 115.582 148.48C115.605 148.263 115.447 148.023 115.376 147.801C114.589 147.192 113.702 146.823 112.703 146.975C111.745 147.127 110.118 146.875 110.218 148.187C110.447 151.273 108.89 150.266 107.38 149.698C104.666 149.739 101.97 149.996 99.3082 150.57C96.9406 149.446 94.2969 149.282 91.8177 148.456C87.1765 146.916 82.4237 145.704 77.8001 144.088C70.527 146.589 65.3101 151.653 60.8334 157.626C59.3059 159.664 58.0957 161.871 56.9324 164.155C55.4578 167.047 53.8305 169.84 53.0785 173.031C52.9492 173.318 52.773 173.599 52.6966 173.898C49.7474 184.871 46.8041 195.849 43.8666 206.822C39.5427 208.321 35.2246 209.838 30.8948 211.308C30.0136 211.606 29.7257 212.344 29.3203 213.023C25.0081 220.167 20.6724 227.298 16.3838 234.459C13.8282 238.722 11.0376 242.85 8.86973 247.335C10.1093 247.903 11.6662 247.897 12.4123 249.326C11.0435 249.467 9.92134 248.577 8.61711 248.419C8.45849 253.226 8.72286 258.027 8.81686 262.829C9.18698 282.344 9.36323 301.866 9.85672 321.382C10.1446 332.636 10.2856 343.884 10.4912 355.138C10.973 355.214 11.3959 355.36 11.3372 355.969C11.2902 356.444 10.9025 356.531 10.5265 356.608C10.5382 357.726 10.5441 358.838 10.5558 359.951C10.7027 368.5 10.8437 377.043 10.9906 385.591C10.926 385.72 10.8848 385.855 10.8613 385.995C11.1198 387.805 10.456 389.702 11.3901 391.447C11.5428 391.734 11.6427 392.067 11.2902 392.29C9.37497 393.496 10.2856 394.363 11.9071 395.147C11.7602 395.323 11.6074 395.499 11.4606 395.674C9.12235 394.732 6.74301 393.853 4.44592 392.811C3.21219 392.249 2.13708 391.335 0.691847 391.318C0.227728 393.578 1.32046 394.679 3.35318 395.54C5.65028 396.512 8.17062 397.15 10.0212 399C13.9398 400.675 17.8819 402.297 21.7593 404.053C22.899 404.568 23.7333 404.797 24.6439 403.714C27.1349 400.768 30.1311 401.477 33.0333 402.829C41.2875 406.682 49.483 410.664 57.7255 414.534C79.6096 424.805 101.511 435.045 123.413 445.298C126.104 446.557 128.8 447.804 131.491 449.057C132.413 449.491 133.13 449.965 131.979 450.954C129.74 452.875 130.263 456.201 133.212 456.827C138.235 457.893 142.401 460.774 147.042 462.624C149.962 463.783 152.805 465.165 155.549 466.688C157.264 467.648 158.845 467.203 160.072 466.354C165.977 462.273 172.357 458.988 178.443 455.223C181.334 453.431 181.398 451.423 178.878 449.315C177.562 448.214 176.146 447.482 174.689 446.709C172.745 445.679 172.756 444.953 174.725 443.782C181.351 439.841 187.996 435.912 194.629 431.983C194.987 431.808 195.363 431.661 195.704 431.456C204.763 426.145 213.763 420.753 222.881 415.547C229.244 411.917 235.354 407.888 241.916 404.557C247.321 401.816 252.256 398.163 257.555 395.194C262.748 392.284 267.801 389.157 272.883 386.071C276.419 383.923 280.15 382.072 283.305 379.326V379.309C283.299 379.145 283.299 378.998 283.317 378.869C283.328 378.688 283.364 378.536 283.416 378.413C283.434 378.378 283.446 378.348 283.457 378.325C283.487 378.272 283.516 378.22 283.557 378.173C283.575 378.149 283.593 378.132 283.61 378.108C283.645 378.073 283.692 378.038 283.734 378.003C283.763 377.985 283.792 377.968 283.822 377.95C283.886 377.921 283.957 377.897 284.027 377.874C284.098 377.856 284.168 377.845 284.245 377.839C284.662 377.798 285.149 377.892 285.584 377.886C285.69 377.886 285.79 377.88 285.89 377.868C290.402 376.44 293.885 373.184 298.027 371.082C299.655 370.256 301.117 369.12 302.657 368.131C300.389 365.765 300.712 363.973 303.773 362.808C306.152 361.907 307.833 360.033 309.9 358.698C313.396 356.444 317.091 354.722 320.975 353.311C321.662 353.065 322.338 354.4 322.96 353.264C323.613 350.781 323.947 348.27 324.041 345.687C324.182 341.928 324.388 338.175 324.617 334.422C324.752 332.167 324.893 329.919 325.034 327.665C325.416 321.663 325.816 315.667 326.215 309.665C326.609 303.669 327.002 297.668 327.367 291.666C328.072 280.078 328.777 268.485 329.299 256.885C329.793 245.959 328.765 235.244 323.912 225.202ZM107.527 153.837C107.827 152.661 108.972 153.205 109.766 153.457C117.327 155.887 124.858 158.434 132.449 160.782C144.704 164.57 156.953 168.382 169.384 171.579C169.243 172.276 168.944 172.979 168.991 173.664C169.09 175.245 168.321 175.637 166.952 175.426C165.93 174.091 164.273 174.068 162.892 173.64C145.456 168.253 128.166 162.386 110.565 157.544C109.877 157.356 109.266 156.865 108.579 156.718C106.652 156.303 107.28 154.804 107.527 153.837ZM150.085 246.082C150.402 246.34 149.415 247.043 148.552 246.656C144.569 244.888 140.327 243.875 136.244 242.429C134.035 241.644 131.127 241.445 129.646 238.541C134.329 238.611 138.371 240.157 142.53 241.234C144.433 241.732 146.196 242.487 148.023 243.143C149.398 243.629 149.075 245.257 150.085 246.082ZM148.91 242.341C149.039 242.276 149.175 242.159 149.298 242.165C149.421 242.171 149.539 242.306 149.662 242.382C149.533 242.446 149.404 242.511 149.28 242.575C149.151 242.493 149.034 242.417 148.91 242.341ZM76.3725 239.963C76.4254 238.324 79.6919 236.081 81.3368 236.462C86.2776 237.621 90.6662 240.174 95.3779 241.913C100.054 243.641 104.654 245.602 109.354 247.265C110.406 247.634 111.463 247.81 112.527 248.354C114.031 249.127 114.084 249.519 113.202 250.89C110.964 254.379 108.943 257.998 106.881 261.599C106.611 262.079 106.329 262.343 105.806 262.384C103.791 265.007 101.893 267.735 100.577 270.745C99.6607 272.829 98.5092 274.27 96.1828 274.551C94.385 275.822 92.7929 274.604 91.383 273.883C87.3234 271.816 82.9231 270.569 78.8165 268.584C77.242 267.829 75.268 267.115 73.2236 266.904C71.7313 266.752 70.2979 265.282 68.6646 264.714C68.1476 264.532 67.6483 264.263 67.19 263.964C66.1972 263.326 64.3407 263.73 64.141 262.536C63.9765 261.587 65.0281 260.41 65.5803 259.356C66.485 257.623 67.1665 255.714 69.0289 254.666C70.668 251.633 72.6831 248.828 74.2458 245.719C74.9684 244.267 75.6969 242.253 77.3066 241.14C76.6252 241.041 76.3549 240.608 76.3725 239.963ZM45.353 269.591C45.3177 268.625 45.2237 267.29 46.1872 267.05C47.5443 266.716 47.5913 268.192 47.9732 269.269C48.3903 268.684 48.1142 267.876 48.919 267.811C49.6534 267.759 49.9178 268.409 50 268.901C50.4054 271.448 50.1939 274.012 50.141 276.571C50.1293 277.01 49.4772 277.432 49.4067 277.268C48.731 275.605 46.7923 276.624 45.9581 275.617C45.0945 274.563 45.1121 273.169 45.4998 271.934C45.7701 271.067 45.3823 270.37 45.353 269.591ZM50.2292 231.614C50.1469 230.554 50.8695 230.513 51.6333 230.525V230.519C51.6744 230.449 51.7096 230.384 51.7508 230.314C51.7155 230.384 51.6744 230.454 51.6391 230.525H51.6333C51.6156 231.233 51.7155 232.024 50.7814 232.234C50.4113 232.316 50.2527 231.948 50.2292 231.614ZM29.1206 234.629C31.9112 230.466 35.301 227.088 40.7588 226.654C47.4679 226.121 50.6521 231.614 48.7193 238.031C48.1142 240.034 46.9451 241.784 45.7818 243.518C45.9581 243.769 45.9933 243.892 45.9463 243.957C45.8993 244.027 45.7642 244.021 45.6291 244.015C45.5116 244.01 45.3941 244.004 45.3353 244.039V244.045C45.2237 245.251 46.6513 246.194 45.8582 247.54C45.6115 247.968 46.058 248.764 45.4822 249.039C44.6656 249.437 44.554 248.419 44.0664 248.12C43.8725 248.003 43.6257 247.974 43.4025 247.909V247.915H43.3966C43.3849 248.009 43.3731 248.108 43.3555 248.202C43.3438 248.266 43.332 248.325 43.3085 248.378C43.2909 248.419 43.2733 248.454 43.2498 248.483C43.2439 248.489 43.238 248.501 43.2321 248.506C43.2145 248.53 43.191 248.553 43.1675 248.565C43.1558 248.577 43.1381 248.588 43.1205 248.594C43.097 248.612 43.0618 248.624 43.0265 248.629C42.9854 248.641 42.9443 248.647 42.8855 248.647H42.815C42.7563 248.641 42.6681 248.547 42.6623 248.495V248.424C42.6623 248.366 42.6681 248.319 42.6799 248.272C42.6916 248.237 42.7034 248.202 42.721 248.173C42.7328 248.149 42.7504 248.126 42.7739 248.108C42.7974 248.079 42.8268 248.056 42.8679 248.038C42.8914 248.015 42.9208 248.003 42.956 247.997C42.9854 247.985 43.0206 247.974 43.0559 247.968C43.1675 247.944 43.285 247.933 43.3966 247.915V247.909C43.2028 247.394 43.0089 246.89 42.815 246.375C41.5519 246.715 40.9762 248.179 39.5897 248.319C39.7248 249.256 39.8952 250.187 39.9833 251.13C40.042 251.768 39.7365 252.225 39.0198 252.207C38.1797 252.189 38.1562 251.703 38.4029 251.071C38.7261 250.234 38.4147 249.514 37.9858 248.811C31.5998 249.888 28.0631 247.88 27.2523 242.417C26.847 239.671 27.5755 236.936 29.1206 234.629ZM14.3804 354.974C13.5873 354.64 13.0292 353.856 12.9763 352.948C12.941 352.351 13.5109 352.263 14.022 352.286C15.0149 352.427 15.3028 353.088 15.2734 353.978C15.2558 354.57 15.103 355.284 14.3804 354.974ZM15.7551 250.351C16.3896 250.304 16.7069 250.632 16.8067 251.223C16.1488 251.305 15.808 251.001 15.7551 250.351ZM24.45 267.946C22.6934 267.173 20.9016 266.459 19.0921 265.821C18.1462 265.493 18.1051 264.79 18.2402 264.105C18.3988 263.309 18.0287 262.138 19.3388 261.927C19.8793 261.845 19.5621 261.458 19.6737 261.23C20.2201 260.059 20.8428 260.299 21.3128 261.224C21.5067 261.605 20.9251 262.501 22.0295 262.149C22.711 261.927 23.1223 261.546 22.7287 260.709C22.4643 260.153 22.3762 259.52 22.1647 258.759C24.0564 258.589 25.5839 260.738 27.1701 258.747C27.3522 258.519 27.8046 258.706 27.9867 259.005C28.0925 259.181 28.1865 259.567 28.1042 259.632C25.7366 261.505 27.223 264.058 26.988 266.271C26.7119 268.936 26.8235 268.988 24.45 267.946ZM83.1992 367.077C81.1665 367.176 79.2101 367.364 77.0951 366.655C72.8535 365.244 68.9936 363.007 64.8283 361.491C57.6139 358.856 50.7403 355.472 43.7844 352.257C42.9619 351.876 42.9031 351.543 43.1558 350.817C43.5317 349.722 43.8725 350.489 44.2367 350.799C45.0534 349.663 45.9111 350.372 46.7571 350.74C56.9266 355.185 67.1019 359.641 77.2773 364.079C77.9294 364.366 78.6226 364.559 79.2982 364.799C80.9256 363.247 82.2298 364.389 83.5634 365.297C83.8219 364.77 84.1333 364.659 84.5152 365.191C84.7502 366.286 84.192 367.03 83.1992 367.077ZM69.0818 322.038C71.1439 321.651 73.5467 323.847 73.4997 325.785C73.1648 326.663 73.9403 328.502 71.9546 328.502C69.493 328.502 67.9185 327.19 68.2005 325.451C68.3885 324.298 67.1254 322.412 69.0818 322.038ZM120.693 405.055C120.552 405.055 120.417 405.055 120.276 405.06V382.061C120.417 382.061 120.552 382.055 120.693 382.055V405.055ZM120.722 379.666C120.57 374.496 119.771 369.325 120.94 364.184C122.121 369.355 120.564 374.507 120.722 379.666ZM123.36 324.011C123.284 325.071 123.677 326.201 122.291 326.921C121.557 327.302 121.927 328.408 121.927 329.193C121.903 336.758 121.956 344.317 121.88 351.882C121.856 353.996 121.48 356.11 121.245 358.446C120.399 357.925 120.464 357.497 120.464 357.123C120.458 350.36 120.076 343.574 120.57 336.852C121.069 330.095 120.652 323.361 120.975 316.627C121.069 314.783 120.382 313.858 118.719 313.231C106.54 308.693 94.4673 303.88 82.4061 299.038C74.5454 295.882 66.5614 293.019 58.6773 289.915C48.4373 285.887 38.2384 281.759 28.0278 277.648C27.3992 277.397 26.4769 277.221 26.6296 276.261C26.7471 275.494 27.5578 275.417 28.163 275.306C30.5188 274.867 32.7865 275.377 34.9074 276.325C45.2531 280.974 55.8984 284.862 66.4498 289.008C73.1531 291.643 79.7624 294.588 86.5303 296.965C97.1462 300.689 107.38 305.327 117.926 309.197C119.641 309.823 121.228 310.836 122.961 311.381C124.547 311.879 124.729 312.646 124.141 313.998C122.726 317.236 123.607 320.667 123.36 324.011ZM122.908 271.5C123.166 270.212 124.106 270.704 124.882 270.757C124.835 271.085 124.782 271.418 124.735 271.752C124.059 272.156 123.472 271.887 122.908 271.5ZM124.841 435.971C124.823 436.662 124.958 437.411 123.713 438.395C123.807 395.949 124.864 354.019 125.322 311.89C126.632 312.499 126.268 313.559 126.268 314.385C126.268 325.088 126.491 335.798 126.127 346.489C125.669 360.162 126.068 373.84 125.681 387.5C125.346 399.48 125.463 411.466 125.164 423.44C125.058 427.615 124.946 431.796 124.841 435.971ZM150.115 449.725C149.615 451.493 149.192 451.558 148 450.474C147.876 450.369 147.747 450.182 147.624 450.182C143.793 450.334 141.185 447.892 138.329 445.913C137.583 445.392 136.52 445.386 136.203 444.227C136.044 443.635 135.363 443.524 134.775 443.553C132.149 443.688 129.793 442.429 127.255 442.095C126.174 441.955 125.428 441.375 125.358 440.263C125.275 438.992 126.35 439.302 127.079 439.15C128.019 438.945 128.518 438.149 129.135 437.534C131.426 435.245 133.87 433.119 133.154 429.231C132.883 427.773 134.07 426.257 134.211 424.623C134.293 423.604 135.38 423.229 136.467 423.247C138.723 423.276 140.979 423.259 143.235 423.253C144.657 423.253 145.579 423.862 145.638 425.349C145.685 426.538 146.196 427.135 147.4 427.123C148.417 427.112 149.21 427.627 149.404 428.552C149.932 431.134 148.64 434.073 150.802 435.807C150.561 440.772 151.372 445.275 150.115 449.725ZM175.723 264.076C175.212 264.977 174.748 265.908 174.225 266.798C171.934 270.71 170.101 275.019 167.187 278.392C164.567 281.425 164.015 285.617 160.819 288.147C160.548 288.358 160.307 288.873 160.378 289.178C160.601 290.214 160.918 291.643 159.473 291.391C158.539 291.227 156.959 290.325 157.523 288.358C158.057 286.49 157.64 284.745 155.367 284.124C157.787 280.266 159.514 276.026 162.234 272.314C163.116 271.114 163.568 269.457 164.344 268.063C164.584 267.636 164.696 267.103 164.385 266.693C163.938 266.102 163.55 266.652 163.18 266.88C162.793 267.126 162.293 267.208 162.111 266.816C160.654 263.666 157.276 263.713 154.715 262.565C152.335 261.494 149.68 260.978 147.347 259.678C145.732 258.783 143.887 259.128 142.166 258.724C138.976 257.98 136.508 255.79 133.512 254.69C133.506 254.139 133.635 253.536 132.919 253.273C131.027 252.576 129.217 250.567 127.807 250.48C124.024 250.24 122.256 248.764 122.403 244.695C138.923 250.374 155.778 256.171 173.156 262.143C171.429 263.303 170.677 262.436 169.837 262.149C168.803 261.804 167.792 261.745 167.551 263.045C167.334 264.263 167.428 265.756 169.102 265.715C171.211 265.663 174.031 266.957 174.807 263.426C174.913 262.975 175.371 262.811 175.764 263.057C176.252 263.361 175.917 263.73 175.723 264.076ZM168.397 199.544C167.692 202.964 165.56 205.915 165.166 209.44C165.078 210.218 164.314 210.558 163.756 211.003C162.352 216.683 160.971 222.368 159.532 228.036C157.993 234.102 156.389 240.151 154.814 246.199C154.691 246.668 154.544 247.125 154.38 247.581C154.115 248.307 153.316 249.191 152.911 248.7C152.435 248.126 151.242 247.183 152.088 246.194C153.581 244.443 152.112 244.607 151.078 244.419L151.019 244.496C150.402 244.431 149.139 244.941 150.109 243.471C150.89 243.02 153.716 237.616 153.716 236.837C153.722 236.239 152.37 236.667 152.993 235.765C152.823 235.56 152.67 235.349 152.541 235.133C152.412 234.91 152.3 234.688 152.212 234.454C152.124 234.219 152.053 233.973 152.006 233.728C151.953 233.476 151.924 233.218 151.912 232.955C151.542 232.785 151.46 232.609 151.9 232.422C152.053 232.053 152.212 231.678 152.365 231.309C152.558 231.216 152.758 231.128 152.958 231.04C153.093 231.128 153.222 231.116 153.346 231.017C153.933 229.459 152.976 227.17 151.607 226.9C150.778 226.742 150.144 227.012 149.991 227.907C149.468 230.964 148.287 234.02 149.039 237.118C149.451 238.798 147.776 238.599 147.588 239.518C147.224 241.357 146.202 240.555 145.197 240.221C144.369 239.946 143.482 239.835 142.618 239.677C142.207 239.6 141.672 239.501 141.649 239.103C141.461 235.888 140.274 232.767 140.797 229.482C140.932 228.628 141.114 227.995 142.101 228.341C143.787 228.926 144.257 227.907 144.58 226.619C144.798 225.723 145.133 224.745 145.232 223.949C145.526 221.671 148.041 219.212 145.103 216.999C144.95 217.005 144.786 217.04 144.616 217.081C144.786 217.034 144.95 217.005 145.103 216.999C145.356 211.372 147.823 206.465 150.396 201.664C154.955 193.15 161.071 186.036 169.813 181.48C170.442 181.153 171.135 180.93 171.793 180.661C171.94 179.999 172.169 179.583 172.798 180.309L175.67 179.659C177.597 179.759 179.524 179.818 181.44 179.981C181.951 180.022 182.626 180.169 182.826 180.784C183.055 181.504 182.344 181.697 181.927 182.025C175.923 186.721 171.652 192.74 168.397 199.544ZM202.824 246.451C202.466 246.861 202.178 247.447 201.726 247.652C195.404 250.503 189.065 253.319 182.709 256.089C182.068 256.364 181.269 257.061 180.541 256.118C187.22 253.12 193.9 250.122 200.568 247.107C201.303 246.779 201.99 246.369 202.836 246.439C203.159 246.258 203.482 246.071 203.805 245.889C203.647 246.369 203.265 246.451 202.824 246.451ZM223.751 210.663C222.382 209.809 220.525 209.246 221.636 206.887C221.906 206.307 221.195 205.563 220.702 205.025C218.211 202.296 215.438 201.031 211.484 201.88C204.828 203.309 201.373 208.11 197.948 213.21C196.05 216.033 196.168 219.282 195.416 222.357C195.257 222.983 195.316 223.955 194.417 224.119C193.636 224.259 193.73 223.393 193.46 222.96C192.996 222.222 192.484 222.316 191.856 222.778C191.168 223.288 190.416 223.703 189.23 224.453C189.911 221.771 189.706 219.318 191.732 217.748C193.842 216.115 195.099 213.89 196.297 211.635C198.694 207.121 201.99 203.473 206.079 200.37C210.544 196.98 219.063 196.868 223.245 203.274C224.591 205.341 225.807 207.062 225.666 209.604C225.572 211.249 224.961 211.425 223.751 210.663ZM225.196 236.872L225.09 236.749C226.618 235.051 228.897 234.735 230.818 233.815C234.32 232.152 237.997 230.864 241.746 229.769C236.335 232.393 231.036 235.268 225.196 236.872ZM262.76 259.971C262.249 264.046 262.367 268.139 262.061 272.215C261.38 281.255 261.309 290.343 260.933 299.413C260.487 310.397 259.999 321.382 259.476 332.361C259.417 333.567 258.988 334.755 258.595 336.606C257.684 334.029 258.63 332.273 258.577 330.481C258.454 326.552 258.007 322.494 258.501 318.729C259.077 314.367 259.235 309.993 259.793 305.654C260.052 303.64 260.134 301.632 260.017 299.647C259.641 293.224 260.146 286.806 260.675 280.459C261.503 270.534 261.797 260.609 262.061 250.673C262.067 250.363 262.155 250.058 262.208 249.748C262.419 249.748 262.631 249.748 262.842 249.754C262.842 253.161 263.177 256.61 262.76 259.971ZM266.931 221.707C266.714 222.339 265.88 222.796 265.122 222.462C260.216 220.319 255.011 219.072 250.006 217.233C249.23 216.952 248.214 216.794 247.985 215.74C247.902 215.371 247.914 214.926 248.508 214.803C249.16 215.19 249.788 215.816 250.517 215.951C255.176 216.817 259.5 218.662 263.888 220.325C264.487 220.547 265.116 220.676 265.727 220.869C266.232 221.027 267.301 220.617 266.931 221.707Z" stroke="black" stroke-width="2" stroke-miterlimit="10"/>
<path d="M149.241 249.473C149.176 249.432 149.111 249.396 149.047 249.361L149.053 249.355C149.117 249.391 149.182 249.432 149.241 249.473Z" stroke="black" stroke-width="2" stroke-miterlimit="10"/>
<path d="M303.164 209.287C302.354 210.084 301.331 209.668 300.403 209.732C296.902 209.972 293.424 210.294 290.198 211.829C289.276 212.268 288.289 212.326 287.378 211.957C284.823 210.921 282.126 210.605 279.441 210.195C278.971 210.125 278.384 210.043 278.102 209.738C275.129 206.494 270.805 206.184 267.028 204.867C263.303 203.573 259.361 202.917 255.63 201.465C254.397 200.985 252.699 201.107 251.218 201.072C245.684 200.932 241.448 197.354 236.525 195.615C234.616 194.948 234.698 192.424 233.388 190.966C232.248 189.69 230.809 188.612 229.98 187.049C234.428 187.992 238.799 189.233 243.093 190.691C253.034 194.058 263.127 196.968 273.196 199.866C282.978 202.688 292.595 206.003 302.389 208.772C302.671 208.854 302.906 209.112 303.164 209.287Z" stroke="black" stroke-width="2" stroke-miterlimit="10"/>
<path d="M116.087 120.444C115.182 121.387 114.688 120.21 114.171 119.771C113.061 118.84 112.098 118.547 111.187 119.964C110.811 120.901 110.335 121.808 110.082 122.774C109.718 124.162 110.646 123.348 111.116 123.295C111.498 123.096 111.722 122.856 111.363 122.446C111.516 121.65 112.156 121.884 112.662 121.832C112.85 121.849 113.032 121.861 113.214 121.873C113.202 122.347 113.19 122.815 113.179 123.284C112.985 125.169 114.559 123.553 115.059 124.326C113.884 126.147 112.051 127.377 110.165 128.302C108.996 128.881 108.279 129.116 108.778 130.556C108.99 131.153 108.808 131.856 107.979 132.061C104.819 129.174 101.758 126.188 99.1316 122.804C100.988 122.604 102.486 123.717 104.072 124.344C105.312 124.835 105.418 124.554 105.518 123.512C105.706 121.574 106.434 119.812 107.421 118.154C107.668 117.739 108.02 117.294 107.738 116.825C107.445 116.333 106.875 116.456 106.422 116.574C103.602 117.323 101.141 116.292 98.926 114.805C95.7653 112.674 92.3637 111.924 88.6214 112.141C86.9588 112.235 85.2785 112.446 83.6394 111.684C82.2765 111.058 82.2177 109.928 82.8287 109.067C84.3268 106.947 85.3079 104.594 86.3713 102.275C87.041 100.823 87.9575 100.29 89.6495 100.776C91.6411 101.344 93.8089 101.309 95.7653 101.947C100.753 103.581 105.676 105.402 110.829 106.508C112.644 106.9 112.808 108.265 111.921 109.775C110.118 112.873 110.188 113.254 112.955 115.467C113.954 116.263 115.117 116.831 115.963 117.856C116.703 118.763 116.844 119.659 116.087 120.444Z" stroke="black" stroke-width="2" stroke-miterlimit="10"/>
<path d="M82.697 92.4208C79.971 95.3895 78.1733 98.9027 76.6223 102.568C76.3344 103.253 76.2228 104.143 75.3592 104.483C75.1477 104.389 74.9362 104.29 74.7306 104.184C74.102 103.88 73.4969 103.546 72.9035 103.189C71.7226 102.48 70.5888 101.69 69.4667 100.882C68.3445 100.074 67.2342 99.254 66.0886 98.4869C57.8754 92.9829 49.7504 87.3384 41.6019 81.7407C41.2729 81.5182 41.0144 81.202 40.7266 80.9268C43.5994 80.7512 46.2314 81.8578 48.9103 82.6014C59.5615 85.5525 70.201 88.527 80.9815 90.9863C81.7864 91.1678 82.5442 91.4488 82.697 92.4208Z" stroke="black" stroke-width="2" stroke-miterlimit="10"/>
<path d="M203.238 150.664C201.164 152.502 199.079 154.329 196.923 156.238C196.224 155.002 196.194 153.902 196 152.824C195.724 151.278 193.545 150.441 192.193 151.278C192.164 150.505 192.047 149.885 191.024 149.832C189.996 149.779 188.974 149.551 187.952 149.405C187.259 148.479 186.213 148.439 185.191 148.316C184.609 147.262 184.732 146.061 185.067 145.078C185.514 143.772 186.483 142.677 188.163 143.315C189.103 143.672 190.049 143.549 190.989 143.608C191.118 144.773 192.117 144.785 192.916 145.042C196.529 146.213 200.307 146.858 203.796 148.433C203.89 149.247 203.926 150.049 203.238 150.664Z" stroke="black" stroke-width="2" stroke-miterlimit="10"/>
<path d="M107.381 149.697C104.667 149.738 101.97 149.996 99.3089 150.57C96.9413 149.446 94.2975 149.282 91.8183 148.456C87.1771 146.916 82.4243 145.704 77.8008 144.088C81.7194 142.144 85.7965 142.858 89.7034 143.813C95.0319 145.107 100.249 146.881 105.489 148.515C106.165 148.725 107.187 148.626 107.381 149.697Z" stroke="black" stroke-width="2" stroke-miterlimit="10"/>
<path d="M221.73 183.635C216.302 184.683 211.437 182.804 206.467 180.989C204 180.087 201.985 178.266 199.341 177.827C198.231 177.645 198.724 176.978 198.994 176.41C199.834 175.801 201.773 176.181 201.021 174.12C200.91 173.804 201.597 173.517 201.644 173.617C202.361 175.221 203.489 174.255 204.54 174.249C205.186 174.243 205.827 175.081 205.715 175.853C205.245 179.039 207.583 179.255 209.716 179.835C213.776 180.93 217.829 182.037 221.73 183.635Z" stroke="black" stroke-width="2" stroke-miterlimit="10"/>
<path d="M122.056 152.777C121.521 154.235 121.21 154.949 119.442 154.458C115.018 153.222 115 153.304 115.582 148.479C115.605 148.263 115.447 148.023 115.376 147.8C116.845 146.483 119.348 147.42 120.517 145.446C121.862 146.611 122.825 147.8 121.574 149.68C120.899 150.693 122.538 151.448 122.056 152.777Z" stroke="black" stroke-width="2" stroke-miterlimit="10"/>
<path d="M224.163 184.138C223.464 184.853 223.317 184.214 223.117 183.717C223.54 183.664 223.928 183.711 224.163 184.138Z" stroke="black" stroke-width="2" stroke-miterlimit="10"/>
<path d="M181.93 182.025C175.926 186.721 171.655 192.74 168.4 199.544C164.388 200.978 162.455 204.175 161.245 207.97C160.281 210.997 160.587 211.354 163.759 211.003C162.355 216.682 160.974 222.368 159.535 228.036C157.996 234.102 156.392 240.151 154.818 246.199C154.694 246.668 154.547 247.124 154.383 247.581C154.118 248.307 153.319 249.191 152.914 248.699C152.438 248.126 151.246 247.183 152.092 246.193C153.584 244.443 152.115 244.606 151.081 244.419L151.022 244.495C151.222 243.711 150.658 243.599 150.112 243.471C150.893 243.02 153.719 237.615 153.719 236.836C153.725 236.239 152.374 236.667 152.996 235.765C153.983 234.243 153.196 232.597 153.349 231.016C153.936 229.459 152.979 227.169 151.61 226.9C150.781 226.742 150.147 227.011 149.994 227.907C149.471 230.964 148.29 234.02 149.042 237.118C149.454 238.798 147.779 238.599 147.591 239.518C147.227 241.357 146.205 240.555 145.2 240.221C144.372 239.946 143.485 239.834 142.621 239.676C142.21 239.6 141.675 239.501 141.652 239.102C141.464 235.888 140.277 232.767 140.8 229.482C140.935 228.627 141.117 227.995 142.104 228.34C143.79 228.926 144.26 227.907 144.583 226.619C144.801 225.723 145.136 224.745 145.236 223.949C145.529 221.671 148.044 219.212 145.106 216.999C145.359 211.372 147.826 206.465 150.4 201.664C154.959 193.15 161.074 186.036 169.816 181.48C170.445 181.152 171.138 180.93 171.796 180.66C172.219 180.789 172.572 180.719 172.801 180.309L175.673 179.659C177.6 179.759 179.527 179.817 181.443 179.981C181.954 180.022 182.629 180.169 182.829 180.783C183.058 181.504 182.347 181.697 181.93 182.025Z" stroke="black" stroke-width="2" stroke-miterlimit="10"/>
<path d="M169.385 171.579C169.244 172.276 168.944 172.978 168.991 173.663C169.091 175.244 168.322 175.637 166.953 175.426C165.93 174.091 164.274 174.067 162.893 173.64C145.456 168.253 128.166 162.386 110.565 157.544C109.878 157.356 109.267 156.864 108.58 156.718C106.653 156.302 107.281 154.803 107.528 153.837C107.828 152.66 108.973 153.205 109.766 153.457C117.327 155.887 124.859 158.434 132.449 160.782C144.704 164.57 156.954 168.382 169.385 171.579Z" stroke="black" stroke-width="2" stroke-miterlimit="10"/>
<path d="M225.667 209.603C225.573 211.249 224.962 211.424 223.751 210.663C222.383 209.808 220.526 209.246 221.637 206.886C221.907 206.307 221.196 205.563 220.702 205.024C218.211 202.296 215.438 201.031 211.485 201.88C204.828 203.309 201.374 208.11 197.949 213.21C196.051 216.033 196.169 219.282 195.417 222.356C195.258 222.983 195.317 223.955 194.418 224.119C193.637 224.259 193.731 223.393 193.46 222.959C192.996 222.222 192.485 222.315 191.857 222.778C191.169 223.287 190.417 223.703 189.23 224.452C189.912 221.771 189.706 219.317 191.733 217.748C193.842 216.114 195.1 213.889 196.298 211.635C198.695 207.121 201.991 203.473 206.08 200.37C210.545 196.979 219.063 196.868 223.246 203.274C224.592 205.341 225.808 207.062 225.667 209.603Z" stroke="black" stroke-width="2" stroke-miterlimit="10"/>
<path d="M195.3 169.114C193.138 170.824 190.917 173.336 187.492 172.153C185.166 171.351 184.097 169.436 183.339 167.276C183.245 166.45 183.151 165.624 183.051 164.793C183.08 164.676 183.11 164.565 183.145 164.453C183.162 164.401 183.18 164.354 183.198 164.307C183.245 164.172 183.298 164.043 183.35 163.915C183.368 163.874 183.386 163.833 183.403 163.792C183.409 163.78 183.415 163.768 183.421 163.756C183.474 163.645 183.527 163.54 183.585 163.434V163.429C183.591 163.417 183.603 163.405 183.603 163.393C183.744 163.142 183.897 162.896 184.061 162.662C184.085 162.632 184.108 162.597 184.132 162.562C184.144 162.55 184.149 162.533 184.161 162.521C184.243 162.41 184.326 162.304 184.414 162.193C184.614 161.935 184.819 161.69 185.037 161.444C185.377 161.051 185.73 160.665 186.065 160.267C186.235 160.068 186.399 159.863 186.558 159.658C187.768 158.621 189.219 158.498 190.718 158.557C192.768 159.131 194.589 160.085 195.952 161.772C197.903 164.201 197.944 167.024 195.3 169.114Z" stroke="black" stroke-width="2" stroke-miterlimit="10"/>
<path d="M262.762 259.97C262.251 264.046 262.369 268.139 262.063 272.214C261.382 281.255 261.311 290.342 260.935 299.412C260.489 310.397 260.001 321.381 259.478 332.36C259.419 333.566 258.99 334.755 258.597 336.605C257.686 334.029 258.632 332.272 258.579 330.48C258.456 326.551 258.009 322.494 258.503 318.729C259.079 314.367 259.237 309.993 259.795 305.654C260.054 303.64 260.136 301.631 260.019 299.646C259.643 293.223 260.148 286.805 260.677 280.458C261.505 270.533 261.799 260.609 262.063 250.672C262.069 250.362 262.157 250.057 262.21 249.747C262.421 249.747 262.633 249.747 262.844 249.753C262.844 253.161 263.179 256.61 262.762 259.97Z" stroke="black" stroke-width="2" stroke-miterlimit="10"/>
<path d="M190.716 158.556C189.218 158.498 187.767 158.621 186.557 159.657H186.551C185.535 159.47 184.677 160.002 183.79 160.33C179.812 161.806 175.847 163.311 171.875 164.81C171.846 164.751 171.817 164.693 171.799 164.628C171.787 164.599 171.775 164.57 171.77 164.534C171.764 164.505 171.764 164.47 171.758 164.441C172.433 162.959 173.685 162.239 175.195 161.847C178.056 161.097 180.764 159.961 183.484 158.826C184.706 158.316 185.112 157.69 184.818 156.489C186.216 155.066 187.15 153.45 186.839 151.366C186.692 150.4 187.614 150.072 187.949 149.404C188.971 149.551 189.994 149.779 191.022 149.832C192.044 149.884 192.161 150.505 192.191 151.278C191.004 151.805 190.563 152.654 191.456 153.714C192.391 154.82 191.48 156.202 192.226 157.414C192.62 158.047 191.004 157.83 190.716 158.556Z" stroke="black" stroke-width="2" stroke-miterlimit="10"/>
<path d="M183.338 167.275C179.554 168.522 175.759 169.746 171.993 171.045C171.147 171.338 170.348 171.678 169.438 171.608C169.638 169.939 168.662 169.189 167.082 168.744C168.715 168.61 169.708 167.556 170.86 166.771C171.852 168.528 173.274 168.434 174.855 167.685C177.487 166.437 180.13 165.231 183.05 164.792C183.15 165.623 183.244 166.449 183.338 167.275Z" stroke="black" stroke-width="2" stroke-miterlimit="10"/>
<path d="M266.932 221.706C266.715 222.339 265.881 222.795 265.123 222.461C260.217 220.318 255.012 219.071 250.007 217.233C249.231 216.952 248.215 216.794 247.986 215.74C247.903 215.371 247.915 214.926 248.509 214.803C249.161 215.189 249.789 215.816 250.518 215.95C255.177 216.817 259.501 218.661 263.889 220.324C264.488 220.547 265.117 220.676 265.728 220.869C266.233 221.027 267.302 220.617 266.932 221.706Z" stroke="black" stroke-width="2" stroke-miterlimit="10"/>
<path d="M202.838 246.44C202.832 246.445 202.832 246.445 202.827 246.451C202.468 246.861 202.18 247.447 201.728 247.652C195.407 250.503 189.067 253.32 182.711 256.089C182.07 256.364 181.271 257.061 180.543 256.118C187.223 253.121 193.903 250.123 200.571 247.107C201.305 246.779 201.992 246.369 202.838 246.44Z" stroke="black" stroke-width="2" stroke-miterlimit="10"/>
<path d="M241.745 229.769C236.334 232.392 231.035 235.267 225.196 236.871L225.09 236.748C226.617 235.05 228.897 234.734 230.818 233.815C234.319 232.152 237.997 230.864 241.745 229.769Z" stroke="black" stroke-width="2" stroke-miterlimit="10"/>
<path d="M172.798 180.309C172.568 180.719 172.216 180.789 171.793 180.66C171.94 179.999 172.169 179.583 172.798 180.309Z" stroke="black" stroke-width="2" stroke-miterlimit="10"/>
<path d="M203.805 245.889C203.647 246.369 203.265 246.451 202.824 246.451C202.83 246.445 202.83 246.445 202.836 246.439C203.159 246.258 203.482 246.07 203.805 245.889Z" stroke="black" stroke-width="2" stroke-miterlimit="10"/>
<path d="M124.142 313.998C122.726 317.236 123.607 320.667 123.361 324.011C123.284 325.07 123.678 326.2 122.291 326.921C121.557 327.301 121.927 328.408 121.927 329.193C121.904 336.758 121.957 344.317 121.88 351.882C121.857 353.996 121.481 356.109 121.246 358.446C120.4 357.925 120.464 357.497 120.464 357.122C120.458 350.36 120.077 343.573 120.57 336.851C121.069 330.094 120.652 323.361 120.975 316.627C121.069 314.783 120.382 313.857 118.719 313.231C106.541 308.693 94.4678 303.88 82.4066 299.038C74.5459 295.882 66.5619 293.018 58.6778 289.915C48.4378 285.887 38.2389 281.759 28.0283 277.648C27.3997 277.396 26.4773 277.221 26.6301 276.26C26.7476 275.493 27.5583 275.417 28.1634 275.306C30.5193 274.867 32.787 275.376 34.9078 276.325C45.2536 280.974 55.8989 284.862 66.4503 289.007C73.1536 291.642 79.7628 294.588 86.5307 296.965C97.1467 300.689 107.381 305.326 117.926 309.197C119.642 309.823 121.228 310.836 122.961 311.381C124.547 311.878 124.729 312.645 124.142 313.998Z" stroke="black" stroke-width="2" stroke-miterlimit="10"/>
<path d="M150.117 449.724C149.617 451.493 149.194 451.557 148.002 450.474C147.878 450.369 147.749 450.181 147.626 450.181C143.795 450.333 141.187 447.892 138.332 445.913C137.586 445.392 136.522 445.386 136.205 444.226C136.046 443.635 135.365 443.524 134.777 443.553C132.151 443.688 129.795 442.429 127.258 442.095C126.177 441.954 125.43 441.375 125.36 440.262C125.278 438.992 126.353 439.302 127.081 439.15C128.021 438.945 128.521 438.148 129.137 437.534C131.429 435.244 133.873 433.119 133.156 429.231C132.886 427.773 134.072 426.256 134.213 424.623C134.296 423.604 135.383 423.229 136.469 423.247C138.725 423.276 140.981 423.258 143.237 423.253C144.659 423.253 145.581 423.861 145.64 425.349C145.687 426.537 146.198 427.135 147.403 427.123C148.419 427.111 149.212 427.626 149.406 428.552C149.935 431.134 148.642 434.073 150.804 435.806C150.563 440.772 151.374 445.274 150.117 449.724Z" stroke="black" stroke-width="2" stroke-miterlimit="10"/>
<path d="M126.129 346.489C125.671 360.161 126.071 373.839 125.683 387.5C125.348 399.48 125.466 411.465 125.166 423.44C125.06 427.614 124.949 431.795 124.843 435.97C124.825 436.661 124.96 437.41 123.715 438.394C123.809 395.949 124.866 354.019 125.325 311.89C126.635 312.499 126.27 313.558 126.27 314.384C126.27 325.088 126.494 335.797 126.129 346.489Z" stroke="black" stroke-width="2" stroke-miterlimit="10"/>
<path d="M79.2998 364.798C78.1542 366.877 76.7383 365.29 75.6867 364.869C67.0271 361.355 58.4086 357.737 49.8018 354.089C47.8161 353.246 45.7364 352.49 44.2383 350.798C45.0549 349.662 45.9126 350.371 46.7586 350.74C56.9281 355.184 67.1035 359.64 77.2788 364.078C77.9309 364.365 78.6242 364.558 79.2998 364.798Z" stroke="black" stroke-width="2" stroke-miterlimit="10"/>
<path d="M83.199 367.076C81.1663 367.176 79.2099 367.363 77.095 366.655C72.8533 365.244 68.9934 363.007 64.8281 361.49C57.6137 358.855 50.7401 355.471 43.7842 352.256C42.9617 351.876 42.9029 351.542 43.1556 350.816C43.5316 349.721 43.8723 350.488 44.2365 350.799C45.7346 352.491 47.8144 353.246 49.8001 354.089C58.4068 357.737 67.0254 361.356 75.685 364.869C76.7366 365.29 78.1524 366.877 79.2981 364.799C80.9254 363.247 82.2296 364.389 83.5632 365.296C83.8805 365.261 84.1977 365.226 84.515 365.191C84.75 366.286 84.1919 367.029 83.199 367.076Z" stroke="black" stroke-width="2" stroke-miterlimit="10"/>
<path d="M50.1423 276.571C50.1306 277.01 49.4785 277.432 49.408 277.268C48.7323 275.605 46.7936 276.623 45.9594 275.616C45.0958 274.562 45.1134 273.169 45.5011 271.933C45.7714 271.067 45.3836 270.37 45.3543 269.591C45.319 268.625 45.225 267.29 46.1885 267.05C47.5456 266.716 47.5926 268.192 47.9745 269.269C48.3916 268.684 48.1155 267.876 48.9203 267.811C49.6547 267.759 49.9191 268.408 50.0013 268.9C50.4067 271.447 50.1952 274.012 50.1423 276.571Z" stroke="black" stroke-width="2" stroke-miterlimit="10"/>
<path d="M73.5015 325.784C73.1666 326.663 73.9421 328.501 71.9564 328.501C69.4948 328.501 67.9203 327.19 68.2023 325.451C68.3903 324.297 67.1272 322.412 69.0835 322.037C71.1456 321.65 73.5485 323.846 73.5015 325.784Z" stroke="black" stroke-width="2" stroke-miterlimit="10"/>
<path d="M120.694 382.055V405.054C120.553 405.054 120.418 405.054 120.277 405.06V382.061C120.418 382.061 120.553 382.055 120.694 382.055Z" stroke="black" stroke-width="2" stroke-miterlimit="10"/>
<path d="M120.725 379.665C120.572 374.495 119.773 369.325 120.942 364.184C122.123 369.354 120.566 374.507 120.725 379.665Z" stroke="black" stroke-width="2" stroke-miterlimit="10"/>
<path d="M84.5181 365.191C84.2009 365.226 83.8837 365.261 83.5664 365.296C83.8249 364.769 84.1363 364.658 84.5181 365.191Z" stroke="black" stroke-width="2" stroke-miterlimit="10"/>
<path d="M110.13 253.881C108.585 256.657 106.288 259.069 105.807 262.383C103.791 265.006 101.894 267.735 100.578 270.744C99.6613 272.829 98.5099 274.269 96.1834 274.55C95.261 274.07 94.3798 273.508 93.4222 273.128C85.4323 269.954 77.4365 266.816 69.4408 263.671C66.5092 262.518 65.9863 261.007 67.4609 258.267C68.0837 257.119 68.5125 255.872 69.0295 254.666C70.6686 251.633 72.6837 248.828 74.2465 245.719C74.9691 244.267 75.6976 242.252 77.3073 241.14C79.4223 238.493 81.7957 237.843 85.1386 239.214C92.7348 242.334 100.49 245.081 108.174 247.991C111.582 249.279 111.934 250.649 110.13 253.881Z" stroke="black" stroke-width="2" stroke-miterlimit="10"/>
<path d="M175.724 264.075C175.213 264.977 174.748 265.908 174.226 266.798C171.934 270.71 170.101 275.019 167.187 278.392C164.567 281.425 164.015 285.617 160.819 288.147C160.549 288.358 160.308 288.873 160.378 289.177C160.602 290.214 160.919 291.642 159.474 291.391C158.54 291.227 156.959 290.325 157.523 288.358C158.058 286.49 157.641 284.745 155.367 284.124C157.788 280.265 159.515 276.026 162.235 272.314C163.116 271.114 163.569 269.457 164.344 268.063C164.585 267.636 164.696 267.103 164.385 266.693C163.939 266.101 163.551 266.652 163.181 266.88C162.793 267.126 162.294 267.208 162.112 266.816C160.655 263.666 157.276 263.712 154.715 262.565C152.336 261.493 149.68 260.978 147.348 259.678C145.732 258.782 143.888 259.128 142.166 258.724C138.976 257.98 136.509 255.79 133.512 254.689C133.507 254.139 133.636 253.536 132.919 253.272C131.027 252.576 129.218 250.567 127.808 250.479C124.024 250.239 122.256 248.764 122.403 244.694C138.923 250.374 155.778 256.171 173.156 262.143C171.429 263.303 170.677 262.436 169.837 262.149C168.803 261.804 167.793 261.745 167.552 263.045C167.334 264.263 167.428 265.756 169.103 265.715C171.212 265.662 174.032 266.956 174.807 263.426C174.913 262.975 175.371 262.811 175.765 263.057C176.252 263.361 175.918 263.73 175.724 264.075Z" stroke="black" stroke-width="2" stroke-miterlimit="10"/>
<path d="M113.206 250.889C110.967 254.379 108.946 257.998 106.884 261.599C106.614 262.079 106.332 262.342 105.809 262.383C106.291 259.069 108.588 256.657 110.133 253.881C111.937 250.649 111.584 249.279 108.177 247.991C100.492 245.081 92.7375 242.335 85.1412 239.214C81.7984 237.844 79.4249 238.493 77.3099 241.14C76.6284 241.041 76.3582 240.607 76.3758 239.963C76.4287 238.324 79.6951 236.081 81.3401 236.462C86.2809 237.621 90.6695 240.174 95.3812 241.913C100.058 243.64 104.658 245.602 109.358 247.265C110.409 247.634 111.467 247.809 112.53 248.354C114.034 249.127 114.087 249.519 113.206 250.889Z" stroke="black" stroke-width="2" stroke-miterlimit="10"/>
<path d="M96.1841 274.551C94.3863 275.821 92.7942 274.603 91.3843 273.883C87.3247 271.816 82.9244 270.569 78.8178 268.584C77.2433 267.829 75.2694 267.114 73.2249 266.904C71.7327 266.751 70.2992 265.282 68.6659 264.714C68.149 264.532 67.6496 264.263 67.1913 263.964C66.1985 263.326 64.342 263.73 64.1423 262.536C63.9778 261.587 65.0294 260.41 65.5816 259.356C66.4864 257.623 67.1678 255.714 69.0302 254.666C68.5132 255.872 68.0843 257.119 67.4616 258.267C65.987 261.007 66.5099 262.518 69.4414 263.672C77.4372 266.816 85.433 269.954 93.4228 273.128C94.3805 273.508 95.2617 274.071 96.1841 274.551Z" stroke="black" stroke-width="2" stroke-miterlimit="10"/>
<path d="M168.4 199.544C167.695 202.963 165.563 205.915 165.169 209.439C165.081 210.218 164.317 210.558 163.759 211.003C160.587 211.354 160.281 210.997 161.245 207.97C162.455 204.176 164.388 200.979 168.4 199.544Z" stroke="black" stroke-width="2" stroke-miterlimit="10"/>
<path d="M149.241 249.473C149.176 249.432 149.111 249.396 149.047 249.361L149.053 249.355C149.117 249.391 149.182 249.432 149.241 249.473Z" stroke="black" stroke-width="2" stroke-miterlimit="10"/>
<path d="M125.848 39.4298C125.513 40.2261 124.949 39.1019 124.502 38.7506C123.01 37.5853 122.593 38.8677 122.058 39.8572C121.447 40.9756 121.148 42.6385 119.714 40.2144C119.021 39.0492 116.988 39.8748 115.666 39.2775C115.326 39.1194 114.732 39.3829 114.486 39.178C111.795 36.8944 108.27 37.4624 105.227 36.426C101.602 35.1905 97.9418 34.6987 94.1642 35.3135C89.3233 36.1039 87.2905 33.8965 87.5725 28.0939C88.8063 28.2871 90.6627 27.1277 90.8625 29.5928C90.3102 29.7392 89.3996 29.2239 89.2763 30.1022C89.2704 30.1257 89.2704 30.1491 89.2704 30.1725C89.2704 30.2018 89.2763 30.231 89.2821 30.2545C89.288 30.2779 89.2939 30.3013 89.3056 30.3189C89.3174 30.3423 89.3291 30.3599 89.3468 30.3716C89.4878 30.518 89.7991 30.5238 90.0811 30.5414C90.1457 30.5472 90.2104 30.5531 90.2691 30.5589C90.3279 30.5707 90.3807 30.5824 90.4336 30.5941C90.4219 30.8868 90.4101 31.1738 90.3984 31.4665C90.0635 31.5661 89.6346 31.5602 89.6699 32.0872C89.6758 32.1399 89.7639 32.2336 89.8226 32.2394C90.3572 32.2863 90.3396 31.8471 90.4454 31.5134C93.4768 33.1587 93.4533 32.9011 94.7341 29.1712C98.9934 29.0834 102.841 30.9044 106.895 31.771C110.908 32.6317 114.909 33.551 119.003 33.9492C119.279 35.009 120.319 35.3076 121.083 35.6999C121.994 36.1625 122.757 35.4481 123.18 34.6108C123.462 34.0487 123.292 33.4456 122.675 33.2231C121.641 32.8542 122.223 34.3239 121.524 34.4586C120.249 31.1738 120.56 29.7802 122.881 28.1056C124.408 30.6409 125.29 33.4983 126.946 35.9868C127.857 37.3511 126.3 38.3465 125.848 39.4298Z" stroke="black" stroke-width="2" stroke-miterlimit="10"/>
<path d="M93.8695 28.4624C93.6051 26.8346 93.8342 25.3356 92.0247 23.9538C90.2858 22.6305 91.449 18.5376 93.3466 17.2377C91.5136 16.5351 89.7453 16.9157 87.9828 17.5305C87.3365 18.7308 87.4834 19.9839 87.7243 21.2545C88.1649 23.5439 88.1649 25.8275 87.5715 28.0935C88.8053 28.2867 90.6617 27.1274 90.8615 29.5925C90.8967 29.9965 90.7969 30.3478 90.4326 30.5879V30.5937C90.4209 30.8865 90.4091 31.1734 90.3974 31.4662L90.4444 31.513C93.4758 33.1584 93.4523 32.9007 94.7331 29.1709C94.3512 29.0538 93.9458 28.9191 93.8695 28.4624ZM90.4503 18.7367C90.2916 18.6196 90.0449 18.52 90.0038 18.3678C89.9685 18.2156 90.1506 18.0165 90.2329 17.835C90.4091 17.9462 90.5854 18.0575 90.8262 18.2156C90.6735 18.4263 90.5619 18.5844 90.4503 18.7367Z" stroke="black" stroke-width="2" stroke-miterlimit="10"/>
<path d="M118.516 22.3382C118.522 23.0174 118.058 23.3921 117.576 23.7493C115.89 23.0174 114.286 22.1274 112.495 21.5828C106.214 19.6857 99.6637 18.9772 93.3482 17.2382C91.5152 16.5355 89.7469 16.9161 87.9844 17.5309C88.989 16.3716 89.2945 14.0997 91.715 15.1947C92.9311 15.5284 94.1472 15.8739 95.3692 16.1901C103.106 18.1516 111.126 19.0709 118.516 22.3382Z" stroke="black" stroke-width="2" stroke-miterlimit="10"/>
<path d="M119.08 21.8877C118.892 22.034 118.704 22.1863 118.516 22.3385C111.126 19.0712 103.106 18.152 95.369 16.1904C94.1471 15.8742 92.931 15.5288 91.7148 15.195C92.9368 13.7663 94.5877 14.5919 95.7627 14.873C102.589 16.489 109.592 17.3381 116.272 19.5748C117.494 19.9847 118.681 20.4707 119.08 21.8877Z" stroke="black" stroke-width="2" stroke-miterlimit="10"/>
<path d="M123.179 34.6113C122.756 35.4486 121.992 36.163 121.082 35.7004C120.318 35.3081 119.278 35.0095 119.002 33.9497C117.774 32.5854 120.095 32.1521 119.771 30.6648C119.249 28.2641 118.62 25.9571 117.574 23.7497C118.056 23.3925 118.52 23.0178 118.514 22.3386C118.702 22.1863 118.89 22.0341 119.078 21.8877C120.494 22.0224 121.005 23.1056 121.505 24.1947C121.328 24.7217 121.111 25.2428 120.988 25.7815C120.899 26.1914 121.04 26.6949 121.44 26.771C121.71 26.8179 122.057 26.4197 122.368 26.2206C122.75 26.7945 122.944 27.4151 122.879 28.1061C120.559 29.7807 120.247 31.1742 121.522 34.4591C122.221 34.3244 121.64 32.8547 122.674 33.2236C123.291 33.4461 123.461 34.0492 123.179 34.6113Z" stroke="black" stroke-width="2" stroke-miterlimit="10"/>
<path d="M119.471 52.8913C118.354 53.0318 117.267 53.0552 116.228 52.903C115.987 52.8679 115.74 52.821 115.505 52.7625C115.264 52.7098 115.029 52.6395 114.8 52.5634C113.866 52.2472 112.985 51.7495 112.162 51.0234L112.156 51.0176C112.473 51.041 112.791 51.0703 113.108 51.1054C113.425 51.1405 113.737 51.1815 114.048 51.2284C114.365 51.2752 114.671 51.3279 114.982 51.3865C115.887 51.5621 116.768 51.7963 117.638 52.1125C117.808 52.1711 117.978 52.2355 118.143 52.2999C118.307 52.3584 118.466 52.4287 118.63 52.499C118.748 52.5517 118.865 52.6044 118.983 52.6571C119.147 52.7332 119.312 52.8093 119.471 52.8913Z" stroke="black" stroke-width="2" stroke-miterlimit="10"/>
<path d="M130.158 55.6671C128.242 56.2643 126.627 55.7373 125.246 54.3613C126.926 54.6307 128.624 54.8356 130.158 55.6671Z" stroke="black" stroke-width="2" stroke-miterlimit="10"/>
<path d="M97.6869 47.8907C96.5237 47.9142 95.2723 48.1659 94.5027 47.1061C94.3969 46.9773 94.3088 46.8251 94.2324 46.6494H94.2266V46.6436C94.6261 46.667 95.0373 46.6611 95.4368 46.6904C95.5425 46.6962 95.6542 46.708 95.7599 46.7197C95.8539 46.7314 95.9479 46.7431 96.036 46.7607C96.0948 46.7665 96.1477 46.7782 96.2005 46.7958C96.271 46.8134 96.3357 46.8309 96.4062 46.8543C96.4884 46.8778 96.5648 46.907 96.6412 46.9422C96.694 46.9656 96.7469 46.989 96.7998 47.0183C96.8644 47.0476 96.9231 47.0886 96.9878 47.1295C97.0524 47.1705 97.117 47.2174 97.1758 47.2759C97.2404 47.3286 97.2991 47.3813 97.3579 47.4457C97.4166 47.5101 97.4754 47.5804 97.5283 47.6507C97.5811 47.7268 97.634 47.8029 97.6869 47.8907Z" stroke="black" stroke-width="2" stroke-miterlimit="10"/>
<path d="M122.367 26.2203C122.055 26.4194 121.709 26.8175 121.439 26.7707C121.039 26.6946 120.898 26.191 120.986 25.7811C121.11 25.2424 121.327 24.7213 121.503 24.1943C122.561 24.5457 122.343 25.4357 122.367 26.2203Z" stroke="black" stroke-width="2" stroke-miterlimit="10"/>
<path d="M105.466 49.8058C104.215 49.6418 102.846 49.8058 101.988 48.5586C103.263 48.6464 104.626 48.5 105.466 49.8058Z" stroke="black" stroke-width="2" stroke-miterlimit="10"/>
<path d="M92.834 46.5444C91.5298 47.2529 90.6074 46.7493 89.8789 45.6251C91.0128 45.4612 92.0585 45.5783 92.834 46.5444Z" stroke="black" stroke-width="2" stroke-miterlimit="10"/>
<path d="M123.373 54.174C122.186 54.2442 121.011 54.2852 120.395 52.9678C121.458 53.1903 122.786 52.7745 123.373 54.174Z" stroke="black" stroke-width="2" stroke-miterlimit="10"/>
<path d="M85.5691 44.6179C85.1167 44.8287 84.7231 44.8872 84.3706 44.817C84.2355 44.7935 84.1004 44.7467 83.977 44.6823C83.6304 44.5066 83.3366 44.1904 83.084 43.7572H83.0781V43.7513C83.3719 43.7396 83.6539 43.7513 83.9241 43.7981C84.024 43.8157 84.1239 43.8333 84.2237 43.8567C84.5234 43.9328 84.8112 44.0558 85.0815 44.2256C85.1343 44.2607 85.1813 44.29 85.2283 44.331C85.2695 44.3661 85.3106 44.3954 85.3576 44.4305C85.4281 44.4832 85.4986 44.5476 85.5691 44.6179Z" stroke="black" stroke-width="2" stroke-miterlimit="10"/>
<path d="M87.9786 45.1447C87.2501 45.7537 86.7507 45.5898 86.4805 44.6939C87.0621 44.5651 87.632 44.4948 87.9786 45.1447Z" stroke="black" stroke-width="2" stroke-miterlimit="10"/>
<path d="M111.247 50.9235C110.601 51.5207 110.389 51.064 110.219 50.5078V50.5019C110.277 50.4843 110.336 50.4726 110.395 50.4609C110.454 50.4492 110.507 50.4492 110.559 50.4492C110.601 50.4492 110.648 50.4551 110.689 50.4609C110.924 50.4961 111.112 50.6424 111.247 50.9235Z" stroke="black" stroke-width="2" stroke-miterlimit="10"/>
<path d="M186.551 159.657C186.393 159.862 186.228 160.067 186.064 160.266C185.729 160.664 185.376 161.051 185.036 161.443C184.818 161.689 184.613 161.935 184.413 162.192C184.325 162.304 184.242 162.409 184.16 162.52C184.148 162.532 184.143 162.55 184.131 162.561C184.107 162.596 184.084 162.632 184.06 162.661C183.896 162.895 183.743 163.141 183.602 163.393C183.602 163.404 183.59 163.416 183.584 163.428V163.434C183.526 163.539 183.473 163.645 183.42 163.756C183.414 163.768 183.408 163.779 183.402 163.791C183.385 163.832 183.367 163.873 183.349 163.914C183.297 164.043 183.244 164.172 183.197 164.306C183.179 164.353 183.161 164.4 183.144 164.453C183.109 164.564 183.079 164.675 183.05 164.792C180.13 165.231 177.486 166.438 174.854 167.685C173.274 168.434 171.852 168.528 170.859 166.771C171.206 166.121 171.946 165.67 171.876 164.81C175.847 163.311 179.813 161.806 183.79 160.33C184.677 160.003 185.535 159.47 186.551 159.657Z" stroke="black" stroke-width="2" stroke-miterlimit="10"/>
<path d="M183.484 158.826C180.764 159.961 178.056 161.097 175.195 161.847C173.685 162.239 172.434 162.959 171.758 164.441H171.752C171.135 164.218 170.518 164.002 169.684 163.703C169.549 163.65 169.402 163.603 169.255 163.551C169.102 163.498 168.944 163.44 168.773 163.381C173.902 160.002 179.624 158.82 184.818 156.489C185.112 157.69 184.706 158.316 183.484 158.826Z" stroke="black" stroke-width="2" stroke-miterlimit="10"/>
<path d="M112.662 121.832C112.157 121.884 111.516 121.65 111.363 122.447C111.281 122.728 111.199 123.009 111.117 123.296C110.647 123.348 109.719 124.162 110.083 122.774C110.335 121.808 110.811 120.901 111.187 119.964C112.157 120.216 112.791 120.725 112.662 121.832Z" stroke="black" stroke-width="2" stroke-miterlimit="10"/>
<path d="M114.648 122.722C114.56 123.565 114.002 123.963 113.18 123.284C113.191 122.815 113.203 122.347 113.215 121.873C113.99 121.662 114.754 121.697 114.648 122.722Z" stroke="black" stroke-width="2" stroke-miterlimit="10"/>
<path d="M48.7221 238.031C48.1169 240.033 46.9478 241.784 45.7846 243.517C45.6377 243.693 45.4909 243.863 45.3381 244.038V244.044H45.3322C44.4921 244.823 43.6579 245.596 42.8178 246.375C41.5547 246.714 40.9789 248.178 39.5924 248.319C39.0226 248.366 38.4292 248.342 37.9886 248.811C31.6025 249.888 28.0658 247.88 27.2551 242.417C26.8497 239.67 27.5782 236.936 29.1233 234.629C31.9139 230.466 35.3037 227.087 40.7615 226.654C47.4707 226.121 50.6549 231.613 48.7221 238.031Z" stroke="black" stroke-width="2" stroke-miterlimit="10"/>
<path d="M45.8596 247.54C45.6129 247.967 46.0594 248.763 45.4836 249.039C44.667 249.437 44.5554 248.418 44.0678 248.119C43.8739 248.002 43.6271 247.973 43.4039 247.908V247.914H43.398V247.908C43.2042 247.393 43.0103 246.89 42.8164 246.374C43.6565 245.596 44.4908 244.823 45.3309 244.044H45.3367C45.2251 245.25 46.6527 246.193 45.8596 247.54Z" stroke="black" stroke-width="2" stroke-miterlimit="10"/>
<path d="M39.0223 252.206C38.1822 252.189 38.1587 251.703 38.4054 251.07C38.7285 250.233 38.4172 249.513 37.9883 248.81C38.4289 248.342 39.0223 248.365 39.5921 248.318C39.7273 249.255 39.8976 250.186 39.9857 251.129C40.0445 251.767 39.739 252.224 39.0223 252.206Z" stroke="black" stroke-width="2" stroke-miterlimit="10"/>
<path d="M51.6332 230.525C51.6155 231.233 51.7154 232.024 50.7813 232.235C50.4112 232.317 50.2526 231.948 50.2291 231.614C50.1468 230.554 50.8694 230.513 51.6332 230.525Z" stroke="black" stroke-width="2" stroke-miterlimit="10"/>
<path d="M43.3984 247.915C43.3867 248.009 43.3749 248.108 43.3573 248.202C43.3456 248.266 43.3279 248.325 43.3103 248.378C43.2927 248.419 43.2751 248.454 43.2516 248.483C43.2457 248.489 43.2398 248.501 43.2339 248.506C43.2163 248.53 43.1928 248.553 43.1693 248.565C43.1576 248.577 43.1399 248.588 43.1223 248.594C43.0988 248.612 43.0636 248.624 43.0283 248.629C42.9872 248.641 42.9402 248.647 42.8873 248.647H42.8168C42.7581 248.641 42.6699 248.547 42.6641 248.495V248.424C42.6641 248.366 42.6699 248.319 42.6817 248.272C42.6934 248.237 42.7052 248.202 42.7228 248.173C42.7346 248.149 42.7522 248.126 42.7757 248.108C42.7992 248.079 42.8286 248.056 42.8697 248.038C42.8991 248.02 42.9226 248.009 42.9578 247.997C42.9872 247.985 43.0224 247.974 43.0577 247.968C43.1693 247.944 43.2868 247.933 43.3984 247.915Z" stroke="black" stroke-width="2" stroke-miterlimit="10"/>
<path d="M45.9469 243.957C45.8999 244.027 45.7648 244.021 45.6297 244.015C45.5122 244.009 45.3947 244.004 45.3359 244.039C45.4887 243.863 45.6356 243.693 45.7824 243.518C45.9587 243.769 45.9939 243.892 45.9469 243.957Z" stroke="black" stroke-width="2" stroke-miterlimit="10"/>
<path d="M51.7503 230.313C51.7151 230.384 51.6739 230.454 51.6387 230.524H51.6328V230.518C51.6739 230.448 51.7092 230.384 51.7503 230.313Z" stroke="black" stroke-width="2" stroke-miterlimit="10"/>
<path d="M111.117 123.295C111.199 123.014 111.282 122.727 111.364 122.446C111.722 122.856 111.499 123.096 111.117 123.295Z" stroke="black" stroke-width="2" stroke-miterlimit="10"/>
<path d="M148.554 246.656C144.571 244.887 140.329 243.874 136.246 242.428C134.037 241.643 131.129 241.444 129.648 238.54C134.331 238.61 138.373 240.156 142.532 241.233C144.436 241.731 146.198 242.487 148.025 243.142C149.4 243.628 149.077 245.256 150.087 246.082C150.405 246.339 149.418 247.042 148.554 246.656Z" stroke="black" stroke-width="2" stroke-miterlimit="10"/>
<path d="M152.995 235.765C152.825 235.56 152.672 235.35 152.543 235.133C152.413 234.91 152.302 234.688 152.214 234.454C152.126 234.219 152.055 233.974 152.008 233.728C151.961 233.476 151.932 233.218 151.92 232.955C151.914 232.779 151.908 232.603 151.902 232.422C152.055 232.053 152.214 231.678 152.366 231.309C152.56 231.216 152.76 231.128 152.96 231.04C153.095 231.128 153.224 231.116 153.348 231.017C153.195 232.598 153.982 234.243 152.995 235.765Z" stroke="black" stroke-width="2" stroke-miterlimit="10"/>
<path d="M151.022 244.495C150.406 244.431 149.142 244.94 150.112 243.471C150.658 243.6 151.222 243.711 151.022 244.495Z" stroke="black" stroke-width="2" stroke-miterlimit="10"/>
<path d="M149.662 242.381C149.533 242.445 149.404 242.51 149.28 242.574C149.151 242.492 149.034 242.416 148.91 242.34C149.039 242.276 149.175 242.158 149.298 242.164C149.421 242.17 149.539 242.305 149.662 242.381Z" stroke="black" stroke-width="2" stroke-miterlimit="10"/>
<path d="M151.918 232.955H151.912C151.542 232.785 151.46 232.609 151.901 232.422C151.907 232.603 151.912 232.779 151.918 232.955Z" stroke="black" stroke-width="2" stroke-miterlimit="10"/>
<path d="M124.884 270.757C124.837 271.085 124.784 271.418 124.737 271.752C124.062 272.156 123.474 271.887 122.91 271.5C123.169 270.212 124.109 270.704 124.884 270.757Z" stroke="black" stroke-width="2" stroke-miterlimit="10"/>
<path d="M90.8615 29.593C90.8968 30.0029 90.7969 30.3542 90.4327 30.5943C90.0097 30.4713 89.1931 30.6528 89.2753 30.1024C89.3987 29.2241 90.3093 29.7394 90.8615 29.593Z" stroke="black" stroke-width="2" stroke-miterlimit="10"/>
<path d="M90.4462 31.5136C90.3463 31.8474 90.3581 32.2807 89.8235 32.2338C89.7647 32.228 89.6766 32.1402 89.6707 32.0816C89.6296 31.5546 90.0585 31.5605 90.3992 31.4668L90.4462 31.5136Z" stroke="black" stroke-width="2" stroke-miterlimit="10"/>
<path d="M90.8271 18.2156C90.6743 18.4264 90.5627 18.5844 90.4511 18.7425C90.2925 18.6196 90.0457 18.5259 90.0046 18.3737C89.9694 18.2214 90.1456 18.0223 90.2279 17.8408C90.41 17.9462 90.5862 18.0575 90.8271 18.2156Z" stroke="black" stroke-width="2" stroke-miterlimit="10"/>
</g>
<defs>
<clipPath id="clip0_93_291">
<rect width="330" height="506" fill="white"/>
</clipPath>
</defs>
</svg>
