<svg width="450" height="366" viewBox="0 0 450 366" fill="none" xmlns="http://www.w3.org/2000/svg">
<g clip-path="url(#clip0_160_1532)">
<path d="M343.804 68.4508C343.724 68.4866 343.643 68.5225 343.571 68.5673C343.643 68.5314 343.724 68.4956 343.804 68.4508ZM343.804 68.4508C343.804 68.4597 343.804 68.4508 343.804 68.4508ZM344.046 68.3163C343.966 68.3611 343.885 68.4059 343.813 68.4508C343.885 68.4149 343.966 68.3701 344.046 68.3163ZM344.046 68.3163C344.262 68.3073 344.477 68.2894 344.692 68.2715C344.477 68.2894 344.262 68.2984 344.046 68.3163Z" stroke="black" stroke-miterlimit="10"/>
<path d="M343.562 68.5677C343.643 68.5318 343.724 68.496 343.796 68.4601V68.4512C343.724 68.487 343.643 68.5229 343.562 68.5677Z" stroke="black" stroke-miterlimit="10"/>
<path d="M190.123 164.726C189.388 166.51 188.652 168.294 187.917 170.087C188.652 168.303 189.388 166.51 190.123 164.726ZM190.123 164.726C190.185 164.619 190.257 164.502 190.338 164.395C190.266 164.511 190.194 164.619 190.123 164.726ZM398.022 63.7981C395.252 64.0939 392.473 64.3897 389.703 64.6855C392.796 64.0043 391.38 61.324 391.98 59.558C391.783 58.9036 391.586 58.2582 391.398 57.6038C387.148 59.7463 382.442 60.2034 377.888 60.553C372.796 60.9385 367.883 62.1307 362.872 62.8299C357.574 63.565 352.303 64.569 347.013 65.3848C344.799 65.7254 343.428 64.829 342.675 62.57C341.877 60.1765 340.774 57.8548 339.582 55.6227C337.852 52.3956 335.521 49.7063 332.105 48.0928C330.357 47.2681 328.51 46.4971 327.04 45.3049C322.432 41.5848 317.367 42.0061 312.069 43.0907C310.106 43.4941 309.81 44.1754 310.617 45.8876C311.262 47.2232 311.666 48.6844 312.123 50.1008C312.338 50.7731 312.544 51.5261 311.926 52.0819C311.262 52.6645 310.572 52.2163 309.98 51.8936C306.888 50.2352 303.759 48.6217 300.738 46.8288C296.399 44.2471 292.177 46.4792 287.954 47.0709C286.627 47.2591 287.631 48.5231 287.945 49.2133C290.285 54.2781 292.069 59.4415 291.836 65.1606C291.701 68.6298 290.787 70.5392 287.533 71.5073C280.227 73.6946 273.019 76.1508 265.489 77.6388C257.044 79.3062 248.501 80.2922 240.056 81.9148C238.424 82.2285 237.662 81.9148 237.393 80.113C236.434 73.8649 234.112 68.1099 230.786 62.7403C229.818 61.1805 229.074 59.1726 226.376 61.6287C228.635 56.6626 224.726 54.6904 222.512 52.0908C219.312 48.3438 215.546 45.1615 211.719 42.0509C210.67 41.1993 209.773 40.5718 208.563 43.028C208.787 39.8547 207.344 38.7162 205.676 37.6136C200.315 34.0727 194.766 30.8994 188.805 28.4343C181.364 25.3416 173.726 23.8177 165.667 24.8934C163.076 25.0727 161.346 26.6952 159.885 28.5866C156.568 32.8715 156.72 37.9094 156.926 42.9473C157.966 42.9652 158.423 42.4632 158.155 41.4682C157.921 40.6077 157.751 39.7919 158.441 39.0658C160.351 39.7112 157.778 42.7322 160.485 42.8308C162.081 42.8846 163.614 43.028 165.048 43.8348C170.158 46.7302 175.25 49.6526 180.423 52.4404C192.821 59.1277 205.318 65.6447 217.671 72.4396C223.355 75.5681 228.993 78.7863 234.785 81.7086C237.089 82.865 237.546 85.2136 238.433 87.2754C238.846 88.2525 237.895 88.1987 237.366 88.2973C234.094 88.88 231.235 89.2475 227.783 87.3202C204.269 74.1697 180.53 61.4315 156.846 48.5768C154.775 47.4563 152.946 45.8697 150.57 45.3318C150.31 47.6984 149.217 50.3607 152.507 51.5799C155.241 52.5839 155.313 54.0988 154.219 56.6267C143.049 82.605 132.005 108.637 120.933 134.66C118.943 139.322 119.544 139.098 115.169 136.588C110.74 134.042 106.258 132.832 101.094 133.997C95.2046 135.324 89.1713 136.498 83.2278 136.883C75.3388 137.385 71.0717 143.158 65.3612 146.843C65.0205 147.067 64.895 147.587 64.6081 147.909C62.1159 150.76 61.4257 154.516 59.6865 157.752C59.7134 158.783 59.6776 159.85 60.7892 160.423C61.6498 160.45 62.5104 160.504 63.38 160.486C66.0604 160.432 67.2886 161.911 67.5754 164.412C68.3105 165.318 69.1891 165.237 70.1214 164.78C71.0896 161.902 73.6535 160.307 76.6118 160.746C78.3062 160.997 79.8391 161.705 81.1031 162.826C82.7437 164.278 83.9091 166.779 86.7867 164.771C87.1543 164.52 88.3645 164.87 88.7052 165.3C91.278 168.572 95.3749 167.971 98.6918 169.307C100.924 170.194 103.129 170.903 104.492 173.09C105.111 174.076 106.213 174.56 107.235 175.08C111.726 177.428 113.995 181.48 115.626 186.034C115.859 186.697 115.904 187.477 116.307 187.997C119.777 192.497 121.041 198.136 124.098 202.842C126.16 206.015 125.9 209.753 126.563 213.25C127.029 215.679 127.764 217.884 128.93 220.125C130.113 222.411 130.741 225.19 129.898 227.942C129.208 230.201 131.081 235.436 133.044 236.592C134.694 237.569 134.739 236.09 135.008 235.176C136.46 230.147 136.218 224.921 136.657 219.775C136.846 217.552 136.254 215.275 139.427 214.307C140.521 213.985 141.346 211.968 141.418 210.291C141.462 209.377 141.113 208.355 142.457 207.037C144.044 213.877 143.13 220.717 145.774 226.947C146.375 226.373 146.115 225.468 146.142 224.67C146.187 222.832 146.16 220.986 146.626 219.175C147.137 217.185 147.451 215.168 150.337 216.889C151.566 217.615 152.704 216.701 153.663 215.912C156.962 213.187 160.378 211.959 164.511 214.325C166.635 215.544 168.527 213.778 170.472 213.133C170.508 209.422 170.329 205.729 169.916 202.044C168.688 197.697 168.222 193.206 167.46 188.777C167.048 187.397 166.635 186.016 166.214 184.645C163.901 178.406 161.48 172.22 158.441 166.277C157.5 164.403 155.483 163.346 154.694 161.365C163.91 165.856 172.794 171.001 181.821 175.851C182.35 176.138 182.772 176.604 183.238 176.989C181.257 176.944 179.768 175.645 178.056 174.936C177.196 174.587 176.326 173.95 175.645 175.196L175.663 175.214C178.397 176.021 180.665 177.697 183.076 179.123C184.968 180.252 186.949 179.598 187.819 177.599C192.812 165.99 197.832 154.39 202.808 142.773C209.782 126.467 216.721 110.143 223.677 93.8193C223.785 93.5772 223.848 93.3172 223.964 93.0842C224.287 92.4029 224.412 91.3989 225.497 91.623C226.6 91.8471 226.43 92.7346 226.232 93.5234C226.071 94.1509 225.945 94.7605 226.636 95.137C227.183 95.4328 227.604 95.0653 228.097 94.8591C230.715 93.8013 232.283 90.9328 235.242 90.5563C238.191 90.1708 241.185 90.0722 244.153 89.8033C253.781 88.9248 263.247 86.9258 272.813 85.5722C273.727 85.4467 274.74 85.1777 274.444 84.0034C273.18 79.0821 277.295 77.3251 280.155 76.1508C284.53 74.349 289.102 72.5023 293.978 72.099C295.269 71.9914 297.286 71.0501 297.546 72.8878C297.779 74.4924 295.664 74.2235 294.445 74.4207C290.841 74.9854 288.68 77.5223 288.591 81.108C288.519 83.9765 288.358 86.8541 288.133 89.7047C287.909 92.5194 288.358 95.5493 288.42 98.4986C288.438 99.4667 288.546 100.372 288.402 101.403C287.981 104.442 287.847 107.526 288.25 110.6C288.878 115.324 288.528 120.066 288.349 124.791C288.25 127.238 288.223 129.694 288.304 132.123C288.609 142.199 288.501 152.275 288.42 162.36C288.375 167.532 288.582 172.695 288.384 177.868C288.313 179.607 288.68 181.409 290.626 182.287C291.083 182.493 291.719 182.78 291.594 183.39C291.441 184.17 290.653 184.071 290.079 184.062C288.851 184.035 287.587 184.098 286.421 183.793C282.952 182.888 282.835 182.529 284.458 179.374C285.435 177.455 284.736 175.537 284.314 173.699C282.934 167.658 282.943 161.535 283.615 155.484C284.888 143.938 284.108 132.464 283.086 120.981C282.916 119.071 281.733 117.359 280.334 115.988C275.592 111.371 274.247 102.183 277.448 96.1499C277.842 95.4059 278.236 94.7963 279.196 94.8143C279.608 94.8232 280.343 94.6709 279.976 94.1689C278.201 91.7844 280.442 91.4796 282.28 90.4577C276.237 90.2694 270.841 90.628 265.435 91.4975C256.605 92.9228 247.712 94.0165 238.881 95.4507C236.954 95.7645 235.054 96.7595 233.35 97.7725C231.154 99.0812 231.71 101.448 231.71 103.519C231.701 116.176 231.701 128.816 231.701 141.473C231.701 143.66 231.871 145.722 232.786 147.856C234.103 150.912 232.866 154.274 232.956 157.51C233.019 159.796 233.252 162.028 233.709 164.269C234.265 167.012 233.216 169.719 233.476 172.543C233.834 176.425 233.494 176.478 229.558 176.774C220.029 177.482 210.49 178.173 200.952 178.872C200.782 178.89 200.602 178.881 200.432 178.917C199.616 179.105 198.361 178.952 198.451 180.127C198.523 181.104 199.688 180.916 200.432 180.871C203.848 180.7 207.263 180.485 210.679 180.225C216.721 179.768 222.754 179.248 228.787 178.809C230.455 178.683 232.024 178.594 233.574 177.706C235.645 176.523 236.73 178.029 237.698 179.867C237.904 169.89 238.837 160.074 238.765 150.195C240.074 152.293 240.325 154.722 240.146 156.856C239.886 159.886 240.029 162.745 240.827 165.641C241.078 166.546 241.06 167.559 241.06 168.518C241.078 187.845 241.141 207.172 241.015 226.499C240.979 231.483 240.692 236.539 238.406 241.164C237.591 242.813 236.784 244.49 235.009 245.368C234.838 245.449 234.659 245.53 234.48 245.601C234.274 246.023 234.067 246.444 233.87 246.865C232.794 247.968 231.109 248.434 230.571 250.075C236.712 249.142 242.871 248.237 249.003 247.278C261.992 245.243 274.973 243.181 287.954 241.137C291.674 242.052 294.651 244.49 298.004 246.139C299.429 246.838 300.908 247.941 302.405 247.618C308.519 246.292 315.574 247.78 320.209 241.872C320.245 240.994 320.075 240.061 320.335 239.255C322.818 231.519 321.509 223.558 321.805 215.697C321.877 213.949 321.115 213.294 319.402 213.581C318.721 213.698 317.995 213.689 317.296 213.635C314.687 213.447 313.638 214.908 313.45 217.257C313.369 218.305 313.405 219.363 313.396 220.412C313.369 223.003 313.539 225.611 312.508 228.094C311.782 227.897 311.872 227.395 311.845 226.992C311.495 221.927 312.392 216.799 311.253 211.761C311.146 211.304 311.298 210.901 311.746 210.65C314.032 209.377 315.915 207.593 318.855 207.315C326.538 206.589 334.086 204.698 341.814 204.205C341.751 206.231 341.688 208.247 341.635 210.273C342.244 216.486 341.85 222.707 341.877 228.928C341.5 232.872 344.468 234.692 346.915 236.834C348.573 236.843 349.29 235.992 349.219 234.36C348.986 228.937 349.407 223.496 349.533 218.09C349.73 209.87 349.308 201.614 350.053 193.376C350.42 189.315 349.712 185.165 349.801 181.068C350.008 172.31 348.95 163.543 350.196 154.794C350.447 153.082 350.178 151.289 350.142 149.532C350.133 149.272 349.945 148.895 350.053 148.77C352.885 145.731 349.317 142.943 349.694 139.931C350.106 136.641 349.792 133.271 349.792 129.927C349.792 126.503 349.784 123.078 349.784 119.654V109.641C349.784 106.217 349.775 102.792 349.775 99.3681C349.784 96.0334 349.784 92.6898 349.792 89.3551C349.801 88.2166 349.712 87.0602 350.286 86.0025C349.739 84.102 349.317 82.2823 351.263 80.7584C352.034 80.1578 352.078 79.0462 351.854 78.0512C350.312 78.2125 348.78 78.3739 347.247 78.5353C348.071 80.9915 347.435 83.2684 346.036 85.2315C344.351 87.5891 344.028 90.135 344.019 92.9049C344.001 101.116 343.867 109.318 343.768 117.521C344.27 125.857 343.876 134.203 343.93 142.549C343.939 142.889 343.939 143.373 343.732 143.562C340.828 146.152 341.957 149.595 341.904 152.714C341.778 159.473 341.886 166.241 341.868 173.009C341.859 177.061 340.191 178.074 336.552 176.12C334.472 174.999 332.544 173.592 330.563 172.31C329.496 171.62 329.201 170.508 329.066 169.361C328.125 161.176 326.108 153.153 325.624 144.888C325.283 138.981 323.902 133.163 323.723 127.211C323.678 125.66 323.293 124.091 322.02 122.908C321.24 122.182 321.249 121.151 321.464 120.183C321.778 118.82 321.706 117.234 320.881 116.382C318.595 114.06 319.707 111.416 319.68 108.87C318.093 108.44 316.767 107.561 315.485 106.575C315.18 106.988 314.803 107.373 314.615 107.839C314.454 108.225 314.454 108.709 314.481 109.139C315.494 122.451 312.688 135.324 310.097 148.232C308.044 158.478 306.135 168.751 304.315 179.033C303.875 181.507 302.836 182.798 300.325 183.013C298.667 183.157 297.026 183.47 295.386 183.748C293.96 183.99 293.387 183.47 293.692 182.027C294.086 180.136 294.462 178.244 294.821 176.344C297.95 159.886 301.482 143.49 304.037 126.942C305.202 119.421 305.014 111.622 303.723 103.922C302.8 98.4 303.257 92.7077 303.58 87.105C303.705 84.9447 305.641 83.9586 307.883 84.5323C308.743 84.7564 309.586 85.1688 310.339 84.4068C311.164 83.5552 310.115 82.9994 309.909 82.3182C309.003 79.2793 307.703 76.4287 305.875 73.7932C308.815 75.4874 309.971 78.4815 311.11 81.4666C311.379 81.3231 311.639 81.2335 311.639 81.1707C311.352 77.343 313.046 74.6896 315.96 72.2245C318.326 70.2165 319.205 67.07 318.855 63.8071C318.488 62.0859 319.205 61.7632 320.693 62.3638C323.356 63.4395 326.018 64.4883 328.681 65.5551C332.186 65.5371 335.072 67.6168 338.354 68.4147C339.689 68.7374 340.944 69.0511 342.19 68.9077C342.271 68.8987 342.352 68.8898 342.433 68.8718C342.558 68.8539 342.666 68.827 342.791 68.8001C342.917 68.7643 343.024 68.7374 343.15 68.7015C343.311 68.6477 343.472 68.585 343.634 68.5133C343.714 68.4684 343.795 68.4326 343.867 68.3967H343.876C343.957 68.3519 344.037 68.3161 344.109 68.2623C344.324 68.2443 344.539 68.2264 344.754 68.2174C344.97 68.1995 345.194 68.1816 345.409 68.1637C345.857 68.1278 346.305 68.1099 346.745 68.1099C346.87 68.1099 346.978 68.1188 347.103 68.1188C347.264 68.1278 347.417 68.1368 347.578 68.1547C347.704 68.1637 347.829 68.1816 347.955 68.1995C348.098 68.2174 348.242 68.2443 348.394 68.2802C348.493 68.2981 348.582 68.325 348.672 68.3519C348.771 68.3788 348.86 68.4057 348.95 68.4326C349.192 68.5133 349.434 68.6119 349.676 68.7374C351.532 68.4416 352.993 69.0422 353.88 70.7185C354.633 72.1169 355.709 72.3589 357.188 72.1079C368.771 70.1806 380.488 69.0511 391.953 66.3977C394.033 65.9136 396.149 66.0929 398.247 65.9585C398.13 65.2772 398.076 64.5332 398.022 63.7981ZM170.598 28.3356C170.553 27.493 170.508 26.8297 170.472 26.1394C170.669 26.1394 170.884 26.0767 170.965 26.1484C171.924 27 171.745 27.6723 170.598 28.3356ZM178.63 67.3927C176.191 66.1915 173.87 64.7752 171.512 63.4306C170.194 62.6776 168.903 63.1078 167.729 63.6457C166.429 64.2373 166.545 65.6089 166.85 66.6666C168.554 72.6547 166.985 78.7145 167.316 84.7295C167.433 86.8451 167.55 88.9696 168.141 90.9686C169.351 95.0742 169.585 99.2067 169.441 103.447C169.36 105.876 169.495 108.422 170.14 110.744C170.705 112.796 170.463 114.509 169.656 116.302C167.998 119.959 167.137 123.966 164.717 127.274C164.197 129.981 162.816 132.356 161.785 134.866C159.06 141.5 156.281 148.107 153.511 154.722C152.085 158.12 152.032 158.146 149.262 155.932C145.326 152.777 140.763 150.778 136.308 148.51C131.789 146.206 127.513 143.445 123.13 140.881C121.857 140.137 121.866 139.142 122.448 137.959C123.354 136.157 124.223 134.338 125.102 132.518C127.863 125.884 130.597 119.224 133.412 112.608C141.211 94.2764 149.055 75.9536 156.873 57.6307C158.11 54.7442 158.37 54.6008 161.086 56.0978C169.307 60.6158 177.5 65.1786 185.685 69.7683C186.384 70.1627 187.335 70.3778 187.756 71.7314C184.278 70.7454 181.552 68.827 178.63 67.3927ZM344.683 145.516C346.135 144.494 347.453 145.372 348.788 146.027C347.417 146.323 346.09 147.524 344.719 146.206C344.584 146.09 344.575 145.597 344.683 145.516ZM293.674 210.076C295.556 209.798 296.551 211.215 297.349 212.577C299.931 216.988 300.81 221.774 299.841 226.785C299.178 230.201 297.797 231.124 294.337 230.954C292.768 228.516 291.244 226.041 290.285 223.28C289.631 220.071 289.29 216.862 290.249 213.635C290.778 211.842 291.692 210.363 293.674 210.076ZM298.586 108.386C297.322 113.137 298.443 118.005 297.851 122.783C297.833 122.908 297.672 123.016 297.663 123.016C293.494 121.59 293.53 118.229 293.844 114.751C294.203 110.744 293.647 106.961 291.11 103.536C293.853 104.236 295.816 106.002 298.039 107.301C298.344 107.472 298.667 108.081 298.586 108.386ZM299.026 96.2665C297.833 98.5524 295.789 98.9109 293.817 97.2257C290.061 94.0165 288.402 83.6628 290.984 79.4675C292.661 76.7424 294.83 76.6259 296.856 79.1628C298.757 81.5383 300.092 86.0831 300.146 90.7266C300.227 92.4208 299.985 94.4199 299.026 96.2665ZM324.629 61.4674C322.854 61.2343 321.114 61.0102 319.375 60.7592C318.963 60.6965 318.434 60.5979 318.174 60.32C317.269 59.3249 316.363 57.8907 317.018 56.8239C317.69 55.7213 318.873 56.8777 319.689 57.4514C320.881 58.2941 322.208 58.0341 323.517 58.061C323.867 58.0699 324.216 58.0341 324.566 58.07C326.206 58.2134 328.573 58.1417 328.457 60.1765C328.331 61.9604 325.946 60.9475 324.629 61.4674Z" stroke="black" stroke-miterlimit="10"/>
<path d="M106.151 329.157C106.16 327.759 106.16 326.36 106.16 324.962C106.868 318.275 106.832 311.569 106.635 304.864C106.563 302.56 106.662 299.934 105.98 298.069C105.156 295.792 103.632 293.516 102.377 291.257C101.408 289.517 100.198 287.904 99.6424 285.959C99.5169 285.699 99.4004 285.43 99.2749 285.17L99.1135 285.089L99.1494 284.901C96.6124 280.553 94.0843 276.206 91.5204 271.876C91.0363 271.06 90.4536 270.307 89.9157 269.527C89.4765 269.429 89.3689 269.214 89.6378 268.828C89.584 268.595 89.5213 268.362 89.4585 268.129C87.6208 265.897 86.1058 263.485 85.3527 260.653C81.6682 254.288 77.9569 247.941 74.2903 241.568C68.6246 231.698 63.3534 221.569 57.1857 212.022C54.0391 207.145 51.8069 201.919 49.0278 196.926C46.3295 195.366 43.6311 193.807 40.9327 192.247C39.4267 191.583 37.8758 191.001 36.4773 190.14C36.1546 189.943 35.8408 189.728 35.536 189.495H35.527C34.4602 189.369 33.4114 188.984 32.6763 188.285C30.1572 185.882 27.2975 185.308 24.0433 186.268C23.102 186.366 22.1697 186.465 21.2284 186.572C18.1983 187.056 15.1593 187.532 12.1292 188.016C9.00951 188.518 5.89877 189.118 2.76113 189.486C1.01302 189.701 0.448242 190.364 0.448242 192.157C0.51996 208.571 0.484101 224.993 0.510995 241.407C0.528924 254.225 0.6365 267.053 0.6365 279.872C0.627536 293.489 0.582712 307.105 0.466172 320.731C0.448242 322.56 1.02198 323.582 2.68045 324.397C6.45458 326.262 10.157 328.288 13.8594 330.305C34.8905 341.806 55.9217 353.316 76.9259 364.862C78.163 365.534 79.3374 365.713 80.7 365.498C88.5979 364.252 96.4958 362.997 104.412 361.868C106.178 361.617 106.751 360.935 106.733 359.169C106.662 352.321 106.725 345.463 106.733 338.606C105.487 335.495 106.151 332.304 106.151 329.157ZM20.7712 218.897C20.6277 220.099 20.1347 221.264 20.7174 222.609C19.6058 222.573 19.4803 222.133 19.292 221.748C18.8796 220.896 19.2203 219.991 17.2839 220.816C15.4462 221.605 13.0078 219.399 11.3314 217.723C10.7756 217.167 10.5604 216.809 9.55636 216.764C7.8441 216.701 6.06013 215.957 6.06013 213.689C6.05117 212.578 5.40571 212.165 4.5451 211.852C3.24522 211.385 4.21341 213.384 2.88663 213.044C2.48322 210.83 2.48322 208.517 3.02111 205.469C4.16858 207.432 4.91265 209.055 6.97453 207.952C7.14486 207.853 7.61999 208.194 7.88893 208.409C11.0983 210.955 15.0965 212.004 18.5838 214.039C20.6636 215.249 21.0222 216.871 20.7712 218.897ZM2.49219 199.454C2.49219 198.755 2.45633 198.056 2.50115 197.356C2.58184 195.841 3.36176 195.555 4.60785 196.245C7.94271 198.1 11.2507 199.992 14.6035 201.803C16.1006 202.618 16.6474 203.766 16.4771 205.424C16.2709 207.325 16.3964 209.108 18.539 210.023C19.0948 210.256 19.6237 210.848 19.2203 211.511C18.7631 212.246 18.0907 211.753 17.6156 211.457C16.0557 210.462 13.958 210.005 13.8235 207.558C13.7877 206.912 12.8733 206.231 12.5864 206.742C11.3762 208.911 10.1301 207.145 9.15295 206.778C7.37794 206.114 5.77326 205.012 4.0879 204.106C2.12464 203.049 2.52805 201.166 2.49219 199.454ZM24.0343 331.551C23.3351 330.421 22.6179 330.161 21.3808 330.287C19.7223 330.466 18.4941 328.628 16.8895 328.359C14.7559 328.01 14.6931 325.034 12.2727 325.141C10.0404 325.249 8.38198 323.617 6.64284 322.595C4.43752 321.296 1.61365 320.103 2.29497 316.482C2.55494 315.083 2.79699 314.537 4.23134 315.334C8.3282 317.611 12.3982 319.951 16.5936 322.04C19.032 323.259 19.1127 325.464 19.2741 327.544C20.0899 327.696 20.0988 327.284 20.2423 326.988C20.556 326.298 19.8119 324.881 21.2015 324.989C22.582 325.096 24.0522 325.625 24.2853 327.346C24.4467 328.61 24.5722 329.928 24.0343 331.551Z" stroke="black" stroke-miterlimit="10"/>
<path d="M391.398 57.6042C387.148 59.7467 382.442 60.2038 377.888 60.5534C372.796 60.9389 367.883 62.1311 362.872 62.8304C357.574 63.5654 352.303 64.5694 347.013 65.3852C344.799 65.7258 343.428 64.8294 342.675 62.5704C341.877 60.1769 340.774 57.8552 339.582 55.6231C337.852 52.396 335.521 49.7067 332.105 48.0932C330.357 47.2685 328.51 46.4976 327.04 45.3053C322.432 41.5852 317.367 42.0065 312.069 43.0911C310.106 43.4945 309.81 44.1758 310.617 45.888C311.262 47.2237 311.666 48.6848 312.123 50.1012C312.338 50.7735 312.544 51.5265 311.926 52.0823C311.262 52.6649 310.572 52.2167 309.98 51.894C306.888 50.2356 303.759 48.6221 300.738 46.8292C296.399 44.2475 292.177 46.4796 287.954 47.0713C286.627 47.2595 287.631 48.5235 287.945 49.2137C290.285 54.2785 292.069 59.4419 291.836 65.1611C291.701 68.6302 290.787 70.5396 287.533 71.5077C280.227 73.695 273.019 76.1512 265.489 77.6392C257.044 79.3066 248.501 80.2926 240.056 81.9152C238.424 82.2289 237.662 81.9152 237.393 80.1134C236.434 73.8653 234.112 68.1103 230.786 62.7407C229.818 61.1809 229.074 59.173 226.376 61.6291C228.635 56.663 224.726 54.6908 222.512 52.0912C219.312 48.3442 215.546 45.1619 211.719 42.0513C210.67 41.1997 209.773 40.5722 208.563 43.0284C208.787 39.8551 207.344 38.7166 205.676 37.614C200.315 34.0731 194.766 30.8998 188.805 28.4347C181.364 25.342 173.726 23.8181 165.667 24.8938C171.53 23.2713 177.581 22.7693 183.56 21.846C228.707 14.8539 273.88 8.02313 319.008 0.905544C328.34 -0.564588 336.812 1.47925 345.059 5.28008C361.097 12.6845 374.562 23.2802 384.486 38.0353C388.43 43.9517 391.236 50.3342 391.398 57.6042Z" stroke="black" stroke-miterlimit="10"/>
<path d="M449.391 192.068C446.513 192.417 443.644 192.767 440.776 193.107C438.651 193.358 437.53 192.668 438.113 190.293C438.49 188.778 438.006 187.101 438.902 185.667C438.355 183.802 438.534 181.875 438.633 179.993C438.741 177.913 438.104 176.47 436.087 175.744C435.227 175.484 435.038 175.914 435.011 176.676C434.975 177.429 434.438 177.734 433.747 177.68C433.021 177.635 432.618 177.133 432.582 176.47C432.34 171.925 432.259 167.371 432.681 162.844C432.815 161.401 434.205 161.051 435.477 160.926C437.916 160.675 440.354 160.469 442.784 160.245C442.389 154.239 441.314 148.492 436.84 143.974C433.595 145.041 432.905 144.736 432.501 141.993C432.421 141.796 432.349 141.59 432.268 141.384C430.403 141.841 428.754 142.002 429.453 139.188C428.53 138.461 427.983 137.484 427.472 136.445C419.476 120.13 411.47 103.824 403.465 87.5178C400.91 82.3186 398.373 77.1104 395.818 71.9112C395.316 70.8803 394.572 69.6791 396.194 69.0874C397.754 68.5227 397.853 67.2408 398.184 66.0127C396.087 66.1561 393.971 65.9768 391.891 66.4519C380.425 69.1053 368.709 70.2259 357.126 72.1621C355.647 72.4131 354.571 72.1711 353.818 70.7727C352.931 69.0964 351.469 68.4958 349.614 68.7916C350.17 70.2348 351.918 71.454 350.439 73.2737C350.959 74.5556 351.469 75.8375 351.98 77.1194C354.231 77.0566 356.104 77.7827 355.405 80.3823C354.222 84.8644 354.598 89.4003 354.392 93.9183C354.365 94.492 354.491 95.1554 353.639 95.6394C353.083 93.2012 353.54 90.7898 353.316 88.4322C353.236 87.5089 353.98 85.3844 351.577 86.9262C350.824 87.4103 350.645 86.3794 350.197 86.0657C349.623 87.1234 349.712 88.2798 349.703 89.4183C349.694 92.753 349.694 96.0876 349.686 99.4313C349.686 102.856 349.694 106.28 349.694 109.704V119.717C349.694 123.142 349.703 126.566 349.703 129.99C349.703 133.325 350.017 136.705 349.605 139.994C349.228 143.015 352.796 145.794 349.963 148.833C349.856 148.959 350.044 149.335 350.053 149.595C350.089 151.352 350.358 153.136 350.107 154.857C348.861 163.606 349.919 172.373 349.712 181.131C349.614 185.228 350.331 189.378 349.963 193.439C349.219 201.668 349.641 209.924 349.443 218.153C349.318 223.559 348.897 229 349.13 234.423C349.201 236.055 348.493 236.907 346.826 236.898C345.983 237.005 344.674 236.871 344.827 238.018C345.06 239.757 344.934 241.864 346.709 242.948C347.749 243.585 348.592 244.132 348.735 245.432C348.807 246.086 349.139 246.66 349.901 246.588C350.743 246.525 351.102 245.862 351.165 245.136C351.362 242.966 351.487 240.788 351.649 238.61C351.694 238.018 351.792 237.426 351.909 236.476C353.352 237.615 353.227 239.112 353.684 240.304C353.971 241.039 354.141 241.935 355.226 241.711C356.194 241.505 356.23 240.707 356.266 239.856C356.418 236.673 355.943 233.393 357.53 230.398C356.714 230.085 356.23 230.407 355.988 231.187C355.943 231.259 355.907 231.34 355.844 231.403C355.091 232.227 356.033 234.172 354.697 234.155C353.576 234.137 353.28 232.406 352.895 231.259C352.886 228.955 352.877 226.651 352.859 224.339C352.303 221.031 353.155 217.732 352.94 214.415C352.769 211.807 352.949 209.171 352.769 206.554C352.5 202.726 352.805 202.224 356.615 201.489C357.467 201.328 358.336 201.193 359.197 201.05C359.95 200.879 361.304 201.471 361.151 200.099C361.044 199.185 359.825 199.472 359.089 199.553C357.691 199.705 356.319 199.992 354.93 200.234C353.594 200.467 352.877 199.884 352.877 198.549C352.859 183.175 351.927 167.748 353.218 152.455C354.132 141.742 357.162 131.227 359.072 120.596C360.282 113.9 359.69 107.114 359.412 100.373C359.394 99.8526 359.358 99.1444 359.045 98.8666C356.015 96.2221 357.216 92.7081 357.072 89.4989C356.938 86.6125 357.099 83.6991 357.046 80.8037C357.019 79.0736 357.772 78.3295 359.484 78.0696C368.511 76.698 377.53 75.2189 386.557 73.8026C390.206 73.2289 390.269 73.2827 390.269 76.9849C390.278 111.784 390.287 146.574 390.296 181.373C390.296 187.693 390.161 194.031 390.367 200.35C390.52 205.048 389.363 209.593 389.3 214.245C390.654 213.456 390.69 212.085 390.753 210.767C390.842 208.956 391.811 208.149 393.541 207.889C404.648 206.195 415.746 204.456 426.845 202.771C429.884 202.314 430.368 202.807 429.83 205.738C428.351 213.86 427.194 222.053 425.195 230.04C423.653 236.18 422.64 242.411 421.376 248.587C420.937 250.729 420.112 250.918 418.328 249.851C415.773 248.318 413.111 246.973 410.448 245.638C409.767 245.297 408.727 244.481 408.189 245.656C407.795 246.516 408.772 247.018 409.453 247.404C412.438 249.08 415.415 250.774 418.454 252.352C419.816 253.06 420.345 253.894 420.049 255.489C418.516 264.041 417.118 272.62 415.612 281.181C415.038 284.381 414.662 284.489 411.927 282.974C408.709 281.19 405.491 279.37 402.174 277.765C399.69 276.564 399.027 274.87 399.511 272.226C401.322 262.293 403.007 252.334 404.729 242.384C404.908 241.353 405.007 240.295 405.159 239.255C405.84 234.522 405.831 234.549 401.761 232.102C400.524 231.358 399.789 231.546 399.475 232.962C399.215 234.163 398.991 235.374 398.803 236.584C398.534 238.278 397.673 238.619 396.221 237.812C393.46 236.279 390.69 234.746 387.902 233.258C387.328 232.953 386.548 232.236 386.028 232.98C385.437 233.823 386.261 234.468 386.934 234.854C389.811 236.539 392.698 238.233 395.638 239.793C397.36 240.707 398.005 241.891 397.629 243.845C396.033 252.298 394.563 260.778 392.994 269.24C392.465 272.073 392.088 272.208 389.578 270.836C385.957 268.855 382.362 266.82 378.704 264.911C377.064 264.059 376.391 262.957 376.714 261.101C378.704 249.51 380.703 237.911 382.577 226.302C382.953 223.98 385.024 222.94 385.912 221.049C386.235 220.35 386.871 219.785 386.889 218.933C385.831 219.238 385.168 220.09 384.361 220.744C383.724 221.273 383.473 222.886 382.138 221.389C381.833 221.049 381.259 221.757 380.927 222.142C380.174 223.021 379.305 223.855 378.211 224.133C372.59 225.558 367.507 228.839 361.51 228.937C360.354 228.955 359.224 229.099 358.552 230.255C362.451 230.39 366.181 229.17 369.999 228.74C370.869 228.642 371.739 228.471 372.608 228.399C374.643 228.229 375.531 228.982 375.127 231.178C373.55 239.73 372.097 248.291 370.519 256.843C370.017 259.595 369.417 259.81 367.014 258.448C363.186 256.296 359.421 254.037 355.513 252.047C354.392 251.473 354.15 249.564 352.402 250.084C351.703 252.397 352.59 253.652 354.742 254.817C373.684 265.009 392.599 275.291 411.425 285.708C414.321 287.312 416.983 287.698 420.175 287.151C428.655 285.681 437.181 284.489 445.688 283.171C449.507 282.579 449.516 282.561 449.516 278.778C449.525 250.855 449.525 222.913 449.516 194.981C449.552 193.986 449.444 193.027 449.391 192.068ZM430.412 198.522C430.421 198.62 430.421 198.71 430.403 198.8C430.403 198.862 430.395 198.925 430.386 198.988C430.377 199.051 430.368 199.113 430.35 199.176C430.332 199.248 430.305 199.32 430.278 199.391C430.242 199.463 430.206 199.526 430.161 199.588C430.135 199.633 430.108 199.66 430.063 199.696C430.045 199.714 430.027 199.732 430.009 199.75C429.973 199.777 429.937 199.804 429.901 199.831C429.848 199.866 429.776 199.893 429.713 199.92C429.677 199.938 429.641 199.947 429.597 199.956C429.561 199.965 429.516 199.974 429.471 199.974C429.417 199.983 429.364 199.992 429.301 199.992C428.351 200.046 427.804 199.463 427.804 198.567C427.804 197.76 428.467 197.356 429.193 197.258C429.283 197.249 429.364 197.24 429.444 197.24C429.516 197.24 429.579 197.249 429.642 197.258C429.668 197.258 429.695 197.267 429.713 197.276C429.767 197.285 429.821 197.303 429.875 197.321C429.919 197.338 429.955 197.365 430 197.392C430 197.392 430.009 197.383 430.009 197.392C430.027 197.401 430.036 197.41 430.045 197.419C430.09 197.446 430.126 197.482 430.152 197.527C430.17 197.545 430.188 197.572 430.197 197.598C430.215 197.616 430.233 197.643 430.242 197.67C430.26 197.706 430.278 197.724 430.287 197.76C430.305 197.805 430.323 197.849 430.332 197.894C430.35 197.939 430.359 197.993 430.368 198.047C430.377 198.082 430.386 198.118 430.386 198.163C430.395 198.226 430.395 198.289 430.395 198.36C430.412 198.396 430.412 198.459 430.412 198.522Z" stroke="black" stroke-miterlimit="10"/>
<path d="M297.492 72.9326C297.232 71.0949 295.215 72.0362 293.924 72.1437C289.048 72.5471 284.485 74.3938 280.101 76.1956C277.241 77.3699 273.126 79.1269 274.39 84.0482C274.695 85.2225 273.682 85.4915 272.759 85.617C263.194 86.9706 253.727 88.9696 244.099 89.8481C241.131 90.126 238.137 90.2156 235.188 90.6011C232.239 90.9776 230.67 93.8461 228.043 94.9039C227.55 95.1011 227.129 95.4776 226.582 95.1818C225.892 94.8053 226.017 94.1957 226.178 93.5682C226.376 92.7794 226.546 91.8919 225.443 91.6678C224.359 91.4437 224.242 92.4477 223.91 93.129C223.794 93.362 223.731 93.622 223.623 93.864C216.676 110.179 209.737 126.512 202.754 142.818C197.787 154.435 192.767 166.026 187.765 177.644C186.904 179.643 184.914 180.297 183.022 179.168C180.62 177.742 178.343 176.066 175.609 175.259C175.465 176.909 175.833 178.406 176.962 179.652C179.822 182.834 180.252 186.922 181.05 190.839C181.454 192.829 182.207 194.64 182.888 196.513C184.116 199.92 183.883 203.604 183.937 207.154C184.125 218.117 184.062 229.089 184.089 240.052C186.546 239.9 189.002 239.739 191.458 239.586C192.068 238.86 192.928 238.663 193.807 238.564C200.674 237.749 207.478 236.494 214.345 235.633C219.087 235.041 223.848 234.118 228.545 233.105C230.894 232.603 231.001 233.697 230.257 235.337C229.289 237.489 228.222 239.595 227.102 241.675C226.465 242.849 225.9 243.997 225.99 245.386C226.035 246.148 225.614 247.045 226.438 247.565C227.317 248.111 228.178 247.627 228.85 247.08C229.944 246.202 230.948 245.225 231.97 244.275C232.66 243.629 233.269 242.625 234.372 243.064C235.484 243.504 234.695 244.633 234.928 245.422C236.703 244.544 237.51 242.867 238.326 241.218C240.603 236.583 240.898 231.536 240.934 226.552C241.06 207.226 240.988 187.899 240.979 168.572C240.979 167.613 240.997 166.609 240.746 165.694C239.948 162.79 239.805 159.939 240.065 156.909C240.244 154.776 239.993 152.347 238.684 150.249C238.756 160.136 237.824 169.952 237.617 179.921C236.649 178.092 235.564 176.577 233.494 177.76C231.943 178.648 230.374 178.737 228.706 178.863C222.673 179.293 216.64 179.822 210.598 180.279C207.182 180.539 203.776 180.745 200.351 180.925C199.607 180.969 198.442 181.158 198.37 180.18C198.28 179.006 199.544 179.159 200.351 178.97C200.521 178.934 200.701 178.943 200.871 178.925C210.41 178.226 219.948 177.545 229.477 176.828C233.422 176.532 233.754 176.478 233.395 172.597C233.135 169.773 234.184 167.066 233.628 164.323C233.171 162.082 232.938 159.859 232.875 157.564C232.794 154.328 234.022 150.975 232.705 147.909C231.79 145.776 231.62 143.714 231.62 141.527C231.62 128.869 231.611 116.23 231.629 103.572C231.629 101.502 231.073 99.135 233.269 97.8262C234.982 96.8043 236.873 95.8182 238.801 95.5045C247.631 94.0702 256.524 92.9855 265.354 91.5513C270.76 90.6728 276.156 90.3142 282.199 90.5114C280.37 91.5333 278.12 91.8381 279.895 94.2226C280.262 94.7156 279.527 94.877 279.115 94.868C278.156 94.8501 277.761 95.4597 277.367 96.2037C274.166 102.237 275.511 111.416 280.253 116.042C281.661 117.413 282.835 119.125 283.006 121.035C284.036 132.518 284.816 143.992 283.534 155.538C282.862 161.589 282.862 167.72 284.234 173.753C284.646 175.582 285.354 177.509 284.377 179.427C282.754 182.583 282.871 182.941 286.34 183.847C287.506 184.152 288.779 184.089 289.998 184.116C290.581 184.134 291.361 184.223 291.513 183.443C291.638 182.834 291.002 182.547 290.545 182.341C288.599 181.462 288.232 179.661 288.304 177.921C288.492 172.749 288.295 167.577 288.339 162.413C288.42 152.338 288.528 142.262 288.223 132.177C288.151 129.748 288.178 127.292 288.268 124.844C288.447 120.12 288.797 115.378 288.169 110.654C287.766 107.579 287.9 104.505 288.322 101.457C288.465 100.435 288.366 99.5294 288.339 98.5523C288.277 95.6031 287.837 92.5732 288.053 89.7584C288.277 86.9078 288.429 84.0303 288.51 81.1617C288.608 77.5761 290.76 75.0392 294.364 74.4744C295.61 74.2772 297.726 74.5372 297.492 72.9326ZM187.209 237.65C186.187 237.641 185.793 237.023 185.73 236.144C185.658 235.113 186.196 234.45 187.218 234.36C188.186 234.28 188.661 234.916 188.679 235.812C188.697 236.807 188.204 237.462 187.209 237.65ZM228.249 231.321C227.362 231.277 226.985 230.757 226.976 229.959C226.958 229.026 227.398 228.462 228.393 228.507C229.191 228.542 229.746 228.928 229.719 229.779C229.693 230.712 229.083 231.16 228.249 231.321ZM236.075 219.175C234.094 220.995 232.606 222.411 231.064 223.773C230.571 224.213 229.863 224.24 229.307 223.962C227.021 222.805 224.744 221.622 222.306 220.582C226.752 220.134 231.028 218.861 236.075 219.175Z" stroke="black" stroke-miterlimit="10"/>
<path d="M191.315 322.326C182.028 323.742 172.75 325.159 163.48 326.647C161.911 326.898 160.602 326.701 159.222 325.912C155.107 323.563 150.939 321.322 146.788 319.027C147.344 316.472 147.191 314.007 146.071 311.578C144.834 308.898 144.574 306.137 145.3 303.161C145.891 300.722 146.107 298.185 146.053 295.604C145.963 291.409 145.918 287.168 147.523 283.152C148.043 281.853 148.769 280.598 148.769 279.154C148.787 274.278 151.674 270.334 152.991 265.887C153.906 262.795 155.95 260.383 157.429 257.631C159.052 254.628 160.387 251.464 162.458 248.712C162.933 248.084 163.57 247.466 163.095 246.605C162.628 245.781 161.732 245.852 160.961 245.888C158.074 246.041 155.152 246.023 152.301 246.498C147.424 247.305 141.561 245.583 138.487 251.473C138.298 251.823 137.734 252.011 137.303 251.715C136.765 251.347 136.918 250.81 137.07 250.29C137.743 248.022 138.406 245.754 139.078 243.486C139.222 242.993 139.607 242.428 139.033 242.069C138.496 241.729 138.011 242.177 137.653 242.536C136.595 243.584 135.725 245.377 134.524 245.61C131.207 246.274 129.791 248.99 127.621 250.899C126.644 251.76 125.604 252.62 124.448 253.23C123.148 253.92 121.499 254.171 120.754 252.584C119.759 250.478 118.594 248.389 118.513 245.906C118.262 238.502 117.285 231.133 117.536 223.693C117.653 220.242 116.442 216.997 115.68 213.671C114.748 209.547 114.183 205.379 111.1 202.143C110.759 201.775 110.463 201.255 110.373 200.762C109.809 197.383 108.15 194.452 106.447 191.61C104.134 187.755 101.086 184.546 96.7919 182.753C94.9721 181.991 93.1253 183.013 91.3234 182.52C91.5386 181.364 93.4301 181.875 93.3674 180.476C93.2867 178.495 89.154 174.614 87.0831 174.596C85.3709 174.578 83.7662 174.399 82.7622 172.758C82.5291 171.019 81.6057 169.809 79.9562 169.163C79.7231 168.276 78.5308 167.398 79.2391 166.555C81.525 163.803 78.9791 163.875 77.4999 163.435C75.5366 162.844 73.7258 163.265 72.2197 164.726C71.5025 164.744 70.7943 164.762 70.0771 164.771C71.0453 161.894 73.6092 160.298 76.5676 160.737C78.2619 160.988 79.7949 161.696 81.0589 162.817C82.6994 164.269 83.8648 166.77 86.7425 164.762C87.11 164.511 88.3203 164.861 88.6609 165.291C91.2338 168.563 95.3307 167.962 98.6476 169.298C100.88 170.185 103.085 170.894 104.448 173.081C105.066 174.067 106.169 174.551 107.191 175.071C111.682 177.42 113.95 181.471 115.582 186.025C115.815 186.689 115.86 187.468 116.263 187.988C119.733 192.488 120.997 198.127 124.053 202.833C126.115 206.006 125.855 209.745 126.519 213.241C126.985 215.67 127.72 217.875 128.885 220.116C130.069 222.402 130.696 225.181 129.854 227.933C129.163 230.192 131.037 235.427 133 236.583C134.65 237.56 134.695 236.081 134.964 235.167C136.416 230.138 136.174 224.912 136.613 219.766C136.801 217.543 136.21 215.266 139.383 214.298C140.477 213.976 141.302 211.959 141.373 210.282C141.418 209.368 141.068 208.346 142.413 207.028C144 213.868 143.085 220.708 145.73 226.938C146.331 226.364 146.071 225.459 146.098 224.661C146.142 222.823 146.116 220.977 146.582 219.166C147.093 217.176 147.406 215.159 150.293 216.88C151.521 217.606 152.66 216.692 153.619 215.903C156.918 213.178 160.334 211.95 164.466 214.316C166.591 215.535 168.482 213.769 170.428 213.124C170.912 214.558 170.831 216.028 170.724 217.508C170.446 221.308 170.204 225.118 169.953 228.919C169.244 230.425 168.366 232.092 169.388 233.58C170.204 234.773 171.799 234.127 173.063 233.894C178.182 232.926 178.182 232.917 179.5 238.018C184.52 264.65 189.532 291.274 194.534 317.907C195.26 321.752 195.242 321.725 191.315 322.326Z" stroke="black" stroke-miterlimit="10"/>
<path d="M163.094 246.624C162.628 245.799 161.731 245.871 160.96 245.907C158.074 246.059 155.151 246.041 152.301 246.517C147.424 247.323 141.561 245.602 138.486 251.492C138.298 251.841 137.733 252.029 137.303 251.734C136.765 251.366 136.917 250.828 137.07 250.308C137.742 248.04 138.405 245.772 139.078 243.505C139.221 243.012 139.607 242.447 139.033 242.088C138.495 241.748 138.011 242.196 137.652 242.554C136.594 243.603 135.725 245.396 134.524 245.629C131.207 246.292 129.79 249.009 127.621 250.918C126.644 251.778 125.604 252.639 124.447 253.249C123.147 253.939 121.498 254.19 120.754 252.603C119.759 250.497 118.593 248.408 118.513 245.925C118.262 238.52 117.284 231.152 117.535 223.712C117.652 220.26 116.442 217.015 115.68 213.69C114.747 209.566 114.183 205.398 111.099 202.162C110.758 201.794 110.462 201.274 110.373 200.781C109.808 197.402 108.149 194.47 106.446 191.629C104.133 187.774 101.085 184.565 96.7912 182.772C94.9714 182.01 93.1247 183.032 91.3228 182.539C91.1435 182.584 90.9642 182.637 90.7849 182.673C90.9373 185.649 92.7661 188.061 93.5819 190.84C94.8818 195.223 95.6617 199.687 96.5761 204.134C96.8809 205.613 97.2843 206.599 99.3641 206.169C101.874 205.64 103.972 207.226 104.931 209.736C105.2 210.444 105.577 210.982 106.267 211.251C108.141 212.004 108.221 213.546 108.006 215.196C107.782 216.917 106.348 216.71 105.173 216.89C94.6935 218.512 84.2138 220.126 73.743 221.766C70.9999 222.197 66.3382 219.391 64.6977 216.119C63.9895 214.702 63.1916 213.358 62.2234 212.121C61.8738 211.933 61.5331 211.753 61.1925 211.574L61.2194 211.547C61.569 211.717 61.9097 211.897 62.2593 212.076C64.4736 212.784 64.8142 211.87 64.4287 209.862C63.7743 206.446 60.9684 204.456 59.2651 201.758C58.6196 200.736 57.0508 202.036 55.9392 200.996C57.7769 199.41 60.3857 198.244 59.5878 195.107C59.5071 194.766 59.6147 194.318 59.4264 194.085C56.1543 189.899 57.9025 185.004 57.508 180.432C57.2929 178.003 57.6425 175.529 57.0149 173.126C53.8952 172.338 52.676 174.399 51.6092 176.703C51.6182 181.947 51.5913 187.191 51.672 192.435C51.7079 194.56 50.5783 195.842 48.9736 196.9V196.909C51.7616 201.902 53.9939 207.128 57.1315 212.004C63.2902 221.56 68.5704 231.681 74.2361 241.55C77.9026 247.924 81.614 254.28 85.2985 260.635C94.8459 258.654 104.537 257.551 114.138 255.947C116.576 255.543 116.621 257.22 116.612 258.905C116.603 267.95 116.585 276.995 116.603 286.04C116.621 291.831 116.693 297.63 116.747 303.421C119.983 303.914 122.394 306.111 125.191 307.518C132.462 311.175 139.356 315.559 146.733 319.028C147.289 316.473 147.137 314.008 146.016 311.579C144.779 308.898 144.519 306.138 145.245 303.161C145.837 300.723 146.052 298.186 145.998 295.605C145.909 291.409 145.864 287.169 147.469 283.153C147.989 281.853 148.715 280.598 148.715 279.155C148.733 274.279 151.619 270.334 152.937 265.888C153.851 262.796 155.895 260.384 157.375 257.632C158.997 254.629 160.333 251.465 162.404 248.713C162.942 248.094 163.578 247.476 163.094 246.624ZM59.552 210.543L59.6775 210.409L59.7312 210.57L59.552 210.543ZM102.036 247.664C100.386 247.61 98.7545 247.978 97.114 248.327C92.4703 249.304 87.3694 246.221 86.2488 241.263C85.3882 237.436 82.5553 236.064 79.6777 235.849C76.4324 235.607 75.1953 233.662 74.012 231.51C72.9541 229.592 72.9362 227.288 72.8914 225.083C72.8645 223.98 73.4831 223.64 74.5319 223.496C83.3801 222.313 92.3089 221.829 101.112 220.26C103.3 219.866 104.429 221.022 104.438 223.236C104.447 226.921 104.447 230.614 104.447 234.307C104.456 234.307 104.456 234.307 104.456 234.307C104.456 237.911 104.438 241.514 104.465 245.118C104.483 246.794 103.981 247.736 102.036 247.664Z" stroke="black" stroke-miterlimit="10"/>
<path d="M375.154 231.152C373.576 239.703 372.124 248.264 370.546 256.816C370.044 259.568 369.444 259.783 367.041 258.421C363.213 256.269 359.448 254.01 355.54 252.02C354.419 251.447 354.177 249.537 352.429 250.057C350.089 249.833 347.839 249.107 345.535 250.828C344.298 251.742 342.308 251.285 340.721 250.577C337.682 249.223 334.643 247.897 331.613 246.525C329.219 245.441 326.897 244.302 324.19 244.114C322.612 244.006 321.169 243.253 320.147 241.918C320.183 241.039 320.013 240.107 320.273 239.3C322.756 231.564 321.447 223.604 321.743 215.742C321.814 213.994 321.052 213.34 319.34 213.627C318.659 213.743 317.933 213.734 317.233 213.68C314.625 213.492 313.576 214.953 313.388 217.302C313.307 218.351 313.343 219.408 313.334 220.457C313.307 223.048 313.477 225.657 312.446 228.14C311.72 227.942 311.81 227.44 311.783 227.037C311.433 221.972 312.33 216.845 311.191 211.807C311.084 211.35 311.236 210.946 311.684 210.695C313.97 209.422 315.853 207.638 318.793 207.361C326.476 206.634 334.024 204.743 341.752 204.25C341.689 206.276 341.626 208.293 341.573 210.319C339.089 207.235 336.373 206.957 333.415 209.637C333.289 209.745 333.092 209.772 332.931 209.835C330.08 210.946 329.784 211.717 331.38 214.46C333.791 218.602 336.265 222.716 338.713 226.84C339.421 228.032 340.371 228.857 341.815 228.982C341.438 232.927 344.405 234.746 346.853 236.889C346.01 236.996 344.701 236.862 344.854 238.009C345.087 239.748 344.961 241.855 346.736 242.94C347.776 243.576 348.619 244.123 348.762 245.423C348.834 246.077 349.166 246.651 349.928 246.579C350.77 246.516 351.129 245.853 351.192 245.127C351.389 242.957 351.514 240.779 351.676 238.601C351.721 238.009 351.819 237.418 351.936 236.467C353.379 237.606 353.254 239.103 353.711 240.295C353.998 241.03 354.168 241.927 355.253 241.702C356.221 241.496 356.257 240.698 356.293 239.847C356.445 236.665 355.97 233.384 357.557 230.39C357.897 230.345 358.238 230.291 358.579 230.246C362.478 230.381 366.208 229.162 370.026 228.731C370.896 228.633 371.766 228.462 372.635 228.391C374.661 228.193 375.549 228.955 375.154 231.152Z" stroke="black" stroke-miterlimit="10"/>
<path d="M237.348 88.3065C234.076 88.8892 231.217 89.2567 227.765 87.3294C204.251 74.1789 180.512 61.4407 156.828 48.5861C154.757 47.4655 152.928 45.8789 150.552 45.341C150.212 43.8081 151.53 44.2384 152.202 44.0591C153.762 43.6468 155.474 43.8709 156.917 42.9655C157.957 42.9834 158.414 42.4814 158.145 41.4864C157.912 40.6258 157.742 39.8101 158.432 39.084C160.342 39.7294 157.769 42.7503 160.476 42.849C162.072 42.9027 163.605 43.0462 165.039 43.8529C170.149 46.7484 175.241 49.6707 180.414 52.4586C192.812 59.1459 205.309 65.6629 217.662 72.4578C223.346 75.5863 228.984 78.8044 234.776 81.7268C237.079 82.8831 237.537 85.2318 238.424 87.2935C238.828 88.2706 237.877 88.2169 237.348 88.3065Z" stroke="black" stroke-miterlimit="10"/>
<path d="M116.792 327.643C116.828 330.027 116.128 331.193 113.627 331.354C111.458 331.488 109.306 332.017 107.146 332.376C106.814 331.309 106.482 330.242 106.151 329.167C106.16 327.768 106.16 326.37 106.16 324.971C106.42 324.738 106.68 324.317 106.948 324.299C110.319 324.156 110.301 321.933 110.337 319.369C110.561 303.386 109.772 287.429 109.79 271.455C109.799 264.311 109.754 264.311 102.708 266.211C98.2975 266.856 93.878 267.493 89.4584 268.138C87.6206 265.906 86.1056 263.495 85.3525 260.662C94.8999 258.681 104.591 257.578 114.192 255.974C116.63 255.57 116.675 257.247 116.666 258.932C116.657 267.977 116.639 277.022 116.657 286.067C116.675 291.858 116.747 297.657 116.801 303.448C116.783 311.498 116.693 319.575 116.792 327.643Z" stroke="black" stroke-miterlimit="10"/>
<path d="M184.117 240.044C182.476 239.632 181.275 238.189 179.509 238.063C178.182 232.953 178.191 232.971 173.072 233.94C171.817 234.173 170.222 234.818 169.397 233.626C168.375 232.147 169.254 230.47 169.962 228.964C171.029 229.368 172.131 229.69 173.153 230.175C174.892 230.99 175.081 230.139 175.027 228.678C174.883 224.33 174.856 219.964 174.982 215.644C175.09 211.95 176.371 208.266 176.156 204.474C176.103 203.623 176.345 202.663 175.502 202.045C174.507 201.31 174.265 203.183 173.252 202.726C172.212 197.509 171.468 192.184 168.841 187.406C168.196 186.241 167.64 185.031 166.179 184.681C163.866 178.442 161.445 172.257 158.406 166.313C162.996 168.348 167.523 170.527 171.88 173.019C173.126 173.736 173.951 175.188 175.609 175.224L175.627 175.242C175.484 176.891 175.852 178.388 176.981 179.634C179.841 182.817 180.271 186.904 181.069 190.822C181.472 192.812 182.225 194.622 182.907 196.496C184.135 199.902 183.902 203.587 183.956 207.137C184.153 218.109 184.09 229.081 184.117 240.044Z" stroke="black" stroke-miterlimit="10"/>
<path d="M234.946 245.404C234.776 245.485 234.596 245.566 234.417 245.637C233.27 245.602 233.512 246.247 233.808 246.901C232.732 248.004 231.046 248.47 230.509 250.111C224.744 252.217 218.872 251.742 213.153 250.299C206.044 248.497 199.518 245.216 193.242 241.442C192.48 240.985 191.745 240.51 191.485 239.578C192.095 238.852 192.956 238.654 193.834 238.556C200.701 237.74 207.505 236.485 214.372 235.624C219.114 235.033 223.875 234.109 228.572 233.097C230.921 232.595 231.029 233.688 230.284 235.329C229.316 237.48 228.249 239.587 227.129 241.666C226.492 242.841 225.928 243.988 226.017 245.378C226.062 246.139 225.641 247.036 226.466 247.556C227.344 248.103 228.205 247.619 228.877 247.072C229.971 246.193 230.975 245.216 231.997 244.266C232.687 243.621 233.297 242.617 234.399 243.056C235.502 243.495 234.722 244.625 234.946 245.404Z" stroke="black" stroke-miterlimit="10"/>
<path d="M36.3695 178.119C36.3068 178.944 36.2351 179.76 36.1544 180.576C36.1006 181.069 36.0558 181.571 36.0109 182.055C35.9661 182.485 35.9303 182.915 35.8854 183.345C35.8316 183.874 35.7868 184.412 35.742 184.941C35.7061 185.309 35.6882 185.667 35.6613 186.035C35.6344 186.402 35.6165 186.77 35.5896 187.137C35.5717 187.505 35.5537 187.872 35.5448 188.24C35.5358 188.643 35.5269 189.056 35.5269 189.468H35.5179C34.4511 189.343 33.4022 188.957 32.6671 188.258C30.148 185.855 27.2883 185.282 24.0341 186.241C22.6356 184.878 24.3748 182.592 22.5908 181.337C23.3618 176.586 24.1327 171.826 24.9037 167.066C25.074 166.036 25.1816 164.969 25.8091 164.072C29.9688 163.929 33.0705 166.394 36.3964 168.33C36.4323 169.729 36.4323 171.118 36.495 172.517C36.5847 174.399 36.504 176.264 36.3695 178.119Z" stroke="black" stroke-miterlimit="10"/>
<path d="M75.1151 168.08C74.2904 169.397 72.7574 171.19 71.0451 170.07C68.4902 168.393 65.9622 167.685 62.9231 167.327C60.933 167.094 58.647 166 56.612 164.969C54.8998 164.1 53.2323 163.105 51.2242 162.988C50.4622 162.943 50.0499 162.387 49.5747 161.832C48.0149 159.958 45.8275 159.815 44.2228 161.67C43.174 162.88 42.394 162.943 41.1121 162.145C39.6598 161.231 37.9296 161.24 36.2622 161.312C34.3168 161.392 32.4343 161.132 30.6055 160.451C36.7283 158.596 43.1381 158.443 49.3596 157.188C52.8558 156.48 56.2713 156.552 59.6421 157.78C59.669 158.811 59.6331 159.877 60.7447 160.451C62.6273 162.432 64.8774 163.777 67.531 164.44C68.2661 165.346 69.1446 165.265 70.077 164.808C70.7852 164.79 71.5023 164.772 72.2195 164.763C72.596 165.113 72.9546 165.489 73.358 165.803C74.1828 166.421 76.0474 166.592 75.1151 168.08Z" stroke="black" stroke-miterlimit="10"/>
<path d="M436.087 175.743C435.226 175.483 435.038 175.914 435.011 176.676C434.984 177.429 434.446 177.733 433.747 177.68C433.021 177.635 432.618 177.133 432.582 176.469C432.34 171.925 432.25 167.371 432.68 162.844C432.815 161.401 434.204 161.051 435.477 160.925C437.916 160.683 440.354 160.468 442.784 160.244C443.232 162.682 443.16 165.139 442.757 167.568C442.084 171.539 440.399 174.73 436.087 175.743Z" stroke="black" stroke-miterlimit="10"/>
<path d="M449.391 192.067C446.513 192.417 443.644 192.776 440.767 193.107C438.642 193.358 437.522 192.668 438.113 190.293C438.49 188.778 438.006 187.101 438.902 185.667C441.977 187.298 445.043 188.921 448.109 190.561C448.718 190.884 449.346 191.234 449.391 192.067Z" stroke="black" stroke-miterlimit="10"/>
<path d="M21.2286 186.545C18.1985 187.029 15.1595 187.504 12.1294 187.989C11.5109 184.842 14.3975 184.779 16.0022 183.578C18.0013 184.125 19.9197 184.788 21.2286 186.545Z" stroke="black" stroke-miterlimit="10"/>
<path d="M398.022 63.7987C395.252 64.0945 392.473 64.3903 389.703 64.6861C392.796 64.0048 391.38 61.3245 391.98 59.5586C393.683 60.4461 395.387 61.3425 397.081 62.2299C397.709 62.5706 398.39 62.8664 398.022 63.7987Z" stroke="black" stroke-miterlimit="10"/>
<path d="M24.0433 186.249C23.102 186.348 22.1697 186.447 21.2284 186.554C19.9285 184.788 18.0011 184.125 16.002 183.587C16.3426 181.964 17.768 182.251 18.8438 182C20.0809 181.722 21.3449 181.561 22.6 181.337C24.3839 182.601 22.6448 184.887 24.0433 186.249Z" stroke="black" stroke-miterlimit="10"/>
<path d="M436.84 143.983C433.586 145.05 432.904 144.736 432.501 142.002C434.231 142.038 435.737 142.576 436.84 143.983Z" stroke="black" stroke-miterlimit="10"/>
<path d="M106.725 338.57C105.479 335.495 106.151 332.304 106.151 329.157C106.483 330.224 106.814 331.291 107.146 332.366C106.868 334.419 107.558 336.553 106.725 338.57Z" stroke="black" stroke-miterlimit="10"/>
<path d="M432.268 141.401C430.403 141.859 428.754 142.02 429.453 139.196C430.52 139.77 431.865 139.985 432.268 141.401Z" stroke="black" stroke-miterlimit="10"/>
<path d="M322.729 102.802C322.773 104.415 321.868 105.061 320.514 105.616C318.856 106.298 316.982 105.688 315.422 106.638C315.118 107.051 314.741 107.436 314.553 107.902C314.391 108.288 314.391 108.772 314.418 109.202C315.431 122.514 312.625 135.387 310.035 148.295C307.982 158.541 306.072 168.814 304.252 179.096C303.813 181.57 302.773 182.861 300.263 183.076C298.605 183.22 296.964 183.533 295.324 183.811C293.898 184.053 293.324 183.533 293.629 182.09C294.024 180.199 294.4 178.307 294.759 176.407C297.887 159.949 301.42 143.553 303.974 127.005C305.14 119.484 304.952 111.685 303.661 103.985C302.737 98.463 303.195 92.7707 303.517 87.1681C303.643 85.0077 305.579 84.0217 307.82 84.5954C308.681 84.8195 309.524 85.2318 310.277 84.4699C311.101 83.6183 310.053 83.0625 309.846 82.3812C308.941 79.3424 307.641 76.4917 305.812 73.8563C308.753 75.5505 309.909 78.5445 311.048 81.5296C311.317 81.3862 311.577 81.2966 311.577 81.2338C311.29 77.4061 312.984 74.7527 315.898 72.2875C318.264 70.2795 319.143 67.1331 318.793 63.8701C319.044 64.0853 319.295 64.3004 319.546 64.5155C320.478 67.4379 321.375 70.3692 321.877 73.3991C323.509 83.1611 322.406 93.0038 322.729 102.802Z" stroke="black" stroke-miterlimit="10"/>
<path d="M343.859 142.612C343.868 142.953 343.868 143.437 343.661 143.625C340.757 146.216 341.886 149.658 341.833 152.778C341.707 159.537 341.815 166.305 341.797 173.073C341.788 177.124 340.12 178.137 336.481 176.183C334.401 175.063 332.474 173.655 330.492 172.373C329.426 171.683 329.13 170.572 328.995 169.424C328.054 161.24 326.037 153.217 325.553 144.952C325.212 139.044 323.832 133.227 323.652 127.274C323.607 125.724 323.222 124.155 321.949 122.972C321.169 122.245 321.178 121.215 321.393 120.246C321.707 118.884 321.635 117.297 320.81 116.446C318.524 114.124 319.636 111.479 319.609 108.934C320.828 108.835 322.048 108.745 323.267 108.647C325.66 108.647 328.233 107.983 329.766 110.753C330.967 112.923 332.097 115.074 331.747 117.701C331.631 118.552 331.425 119.628 331.801 120.273C333.953 123.904 333.029 127.983 333.603 131.828C333.791 133.128 333.997 134.231 335.414 134.177C336.821 134.123 336.893 132.796 336.839 131.765C336.517 125.741 338.112 119.969 339.045 114.115C339.17 113.353 339.134 112.403 339.986 112.062C340.622 111.811 340.882 112.474 341.035 112.967C341.322 113.936 342.084 114.922 341.106 115.899C340.802 116.204 340.336 116.32 339.986 116.58C339.439 116.983 339.188 117.557 339.412 118.203C339.726 119.108 340.389 118.687 340.954 118.507C341.868 118.212 342.783 117.898 343.697 117.584C344.199 125.93 343.805 134.266 343.859 142.612Z" stroke="black" stroke-miterlimit="10"/>
<path d="M345.965 85.2951C344.28 87.6527 343.957 90.1985 343.948 92.9685C343.93 101.18 343.796 109.382 343.697 117.584C342.783 117.898 341.868 118.212 340.954 118.508C340.389 118.687 339.726 119.108 339.412 118.203C339.188 117.566 339.448 116.984 339.986 116.58C340.335 116.32 340.802 116.195 341.106 115.899C342.083 114.931 341.321 113.936 341.035 112.968C340.891 112.484 340.622 111.811 339.986 112.062C339.134 112.403 339.161 113.353 339.044 114.115C338.112 119.969 336.516 125.742 336.839 131.766C336.893 132.796 336.821 134.123 335.414 134.177C333.997 134.231 333.791 133.137 333.603 131.828C333.029 127.983 333.953 123.904 331.801 120.273C331.424 119.628 331.631 118.552 331.747 117.701C332.097 115.083 330.967 112.932 329.766 110.753C328.233 107.984 325.66 108.647 323.267 108.647C324.495 107.123 323.625 104.954 324.8 103.457C325.929 102.004 325.839 100.436 325.839 98.7325C325.822 92.5113 324.665 86.3887 324.351 80.1945C324.118 75.5331 322.926 71.0241 321.77 66.524C321.501 65.4663 321.16 64.2023 319.546 64.4892C319.295 64.274 319.044 64.0589 318.793 63.8437C318.426 62.1226 319.143 61.7999 320.631 62.4005C323.294 63.4762 325.956 64.525 328.619 65.5918C331.371 67.7432 334.75 68.4962 337.924 69.6884C340.542 70.6655 343.267 71.8846 343.563 74.9325C343.841 77.7562 344.988 77.8817 347.086 77.1018C347.122 77.5948 347.157 78.0968 347.184 78.5988C348 81.055 347.355 83.3319 345.965 85.2951Z" stroke="black" stroke-miterlimit="10"/>
<path d="M187.757 71.7412C184.287 70.7462 181.562 68.8278 178.631 67.3935C176.192 66.1923 173.87 64.776 171.513 63.4314C170.195 62.6784 168.904 63.1086 167.73 63.6465C166.43 64.2381 166.546 65.6097 166.851 66.6674C168.554 72.6555 166.985 78.7153 167.317 84.7303C167.434 86.8459 167.55 88.9704 168.142 90.9694C169.352 95.075 169.585 99.2075 169.442 103.448C169.361 105.877 169.496 108.423 170.141 110.744C170.706 112.797 170.464 114.509 169.657 116.302C167.998 119.96 167.138 123.967 164.717 127.275C164.197 129.982 162.817 132.357 161.786 134.867C159.061 141.501 156.282 148.107 153.512 154.723C152.086 158.12 152.032 158.147 149.262 155.933C145.327 152.778 140.764 150.779 136.308 148.511C131.79 146.207 127.514 143.446 123.13 140.882C121.857 140.138 121.866 139.143 122.449 137.96C123.354 136.158 124.224 134.338 125.102 132.519C127.864 125.885 130.598 119.225 133.413 112.609C141.212 94.2772 149.056 75.9544 156.873 57.6315C158.11 54.745 158.37 54.6016 161.087 56.0986C169.307 60.6166 177.501 65.1794 185.686 69.7691C186.385 70.1635 187.335 70.3786 187.757 71.7412Z" stroke="black" stroke-miterlimit="10"/>
<path d="M299.025 96.2666C297.833 98.5525 295.789 98.9111 293.817 97.2258C290.061 94.0166 288.402 83.6629 290.984 79.4677C292.66 76.7425 294.83 76.626 296.856 79.1629C298.756 81.5384 300.092 86.0833 300.146 90.7267C300.227 92.421 299.985 94.42 299.025 96.2666Z" stroke="black" stroke-miterlimit="10"/>
<path d="M299.842 226.794C299.178 230.21 297.798 231.133 294.337 230.963C292.769 228.525 291.245 226.05 290.285 223.289C289.631 220.08 289.29 216.871 290.25 213.644C290.778 211.842 291.693 210.354 293.674 210.076C295.557 209.798 296.552 211.215 297.35 212.577C299.931 216.997 300.819 221.775 299.842 226.794Z" stroke="black" stroke-miterlimit="10"/>
<path d="M175.036 228.686C175.08 230.147 174.892 230.99 173.162 230.183C172.14 229.699 171.037 229.376 169.971 228.973C170.222 225.172 170.464 221.362 170.742 217.561C170.849 216.082 170.93 214.612 170.446 213.178C170.482 209.467 170.302 205.773 169.89 202.089C170.903 201.928 171.486 201.291 171.396 200.305C171.002 196.164 170.338 192.103 167.434 188.822C167.021 187.441 166.609 186.061 166.188 184.689C167.649 185.039 168.205 186.249 168.85 187.415C171.477 192.193 172.212 197.517 173.261 202.734C174.274 203.192 174.516 201.318 175.511 202.053C176.353 202.672 176.111 203.64 176.165 204.482C176.38 208.283 175.098 211.959 174.991 215.652C174.865 219.973 174.892 224.338 175.036 228.686Z" stroke="black" stroke-miterlimit="10"/>
<path d="M341.806 228.973C340.362 228.847 339.412 228.023 338.704 226.83C336.257 222.707 333.773 218.601 331.371 214.451C329.775 211.708 330.071 210.937 332.922 209.825C333.083 209.763 333.289 209.745 333.406 209.628C336.373 206.957 339.081 207.226 341.564 210.309C342.173 216.531 341.77 222.752 341.806 228.973Z" stroke="black" stroke-miterlimit="10"/>
<path d="M324.799 103.465C323.625 104.962 324.494 107.131 323.266 108.655C322.047 108.754 320.828 108.843 319.609 108.942C318.022 108.512 316.695 107.633 315.413 106.647C316.982 105.697 318.856 106.306 320.505 105.625C321.859 105.069 322.764 104.424 322.719 102.81C322.406 93.0124 323.499 83.1697 321.868 73.3987C321.366 70.3598 320.469 67.4375 319.537 64.5152C321.159 64.2283 321.491 65.4833 321.76 66.55C322.917 71.0501 324.109 75.5591 324.342 80.2205C324.656 86.4148 325.812 92.5373 325.83 98.7585C325.839 100.444 325.929 102.012 324.799 103.465Z" stroke="black" stroke-miterlimit="10"/>
<path d="M298.587 108.387C297.323 113.138 298.443 118.005 297.852 122.783C297.834 122.909 297.672 123.016 297.664 123.016C293.495 121.591 293.531 118.229 293.845 114.751C294.203 110.744 293.647 106.961 291.11 103.537C293.854 104.236 295.817 106.002 298.04 107.302C298.345 107.472 298.668 108.082 298.587 108.387Z" stroke="black" stroke-miterlimit="10"/>
<path d="M183.22 177.026C181.239 176.981 179.751 175.681 178.039 174.973C177.178 174.623 176.309 173.987 175.627 175.233C173.969 175.197 173.144 173.745 171.898 173.028C167.541 170.527 163.014 168.348 158.424 166.323C157.483 164.449 155.466 163.391 154.677 161.41C163.892 165.901 172.776 171.047 181.804 175.896C182.324 176.174 182.745 176.64 183.22 177.026Z" stroke="black" stroke-miterlimit="10"/>
<path d="M355.422 80.3917C354.239 84.8738 354.616 89.4097 354.409 93.9276C354.382 94.5013 354.508 95.1647 353.656 95.6487C353.101 93.2105 353.558 90.7991 353.334 88.4415C353.253 87.5182 353.997 85.3937 351.594 86.9355C350.841 87.4196 350.662 86.3887 350.214 86.075C349.667 84.1745 349.246 82.3548 351.191 80.8309C351.962 80.2303 352.007 79.1187 351.783 78.1237C351.854 77.801 351.926 77.4604 351.998 77.1287C354.248 77.0659 356.113 77.792 355.422 80.3917Z" stroke="black" stroke-miterlimit="10"/>
<path d="M347.077 77.1108C344.979 77.8817 343.831 77.7562 343.554 74.9414C343.258 71.8936 340.532 70.6834 337.915 69.6973C334.741 68.5051 331.362 67.7521 328.609 65.6007C332.115 65.5828 335.001 67.6625 338.282 68.4603C339.618 68.783 340.873 69.0967 342.119 68.9533C342.2 68.9444 342.281 68.9354 342.361 68.9175C342.487 68.8995 342.594 68.8726 342.72 68.8458C342.845 68.8099 342.953 68.783 343.078 68.7471C343.24 68.6934 343.401 68.6306 343.562 68.5589C343.643 68.5141 343.724 68.4782 343.796 68.4424H343.805C343.885 68.3975 343.966 68.3617 344.038 68.3079V68.3169C344.531 69.9842 345.337 71.4364 346.718 72.548C346.189 74.1167 347.462 75.5599 347.077 77.1108Z" stroke="black" stroke-miterlimit="10"/>
<path d="M328.448 60.168C328.34 61.9609 325.947 60.9569 324.638 61.4678C322.863 61.2348 321.124 61.0107 319.385 60.7597C318.972 60.6969 318.443 60.5983 318.183 60.3204C317.278 59.3254 316.373 57.8911 317.027 56.8244C317.699 55.7218 318.883 56.8782 319.698 57.4519C320.891 58.2945 322.217 58.0345 323.526 58.0614C323.876 58.0704 324.226 58.0345 324.575 58.0704C326.198 58.2049 328.564 58.1332 328.448 60.168Z" stroke="black" stroke-miterlimit="10"/>
<path d="M351.998 77.1287C351.926 77.4603 351.854 77.792 351.783 78.1237C350.241 78.285 348.708 78.4464 347.175 78.6078C347.139 78.1058 347.103 77.6127 347.076 77.1107C347.462 75.5509 346.189 74.1167 346.726 72.5569C348.017 72.53 349.281 72.6645 350.447 73.283C350.967 74.5649 351.487 75.8468 351.998 77.1287Z" stroke="black" stroke-miterlimit="10"/>
<path d="M169.89 202.081C168.662 197.733 168.196 193.242 167.434 188.813C170.338 192.094 171.002 196.155 171.396 200.297C171.486 201.283 170.903 201.919 169.89 202.081Z" stroke="black" stroke-miterlimit="10"/>
<path d="M350.448 73.2826C349.282 72.6641 348.018 72.5296 346.727 72.5565C345.347 71.445 344.54 69.9928 344.047 68.3254V68.3165C344.262 68.2985 344.477 68.2806 344.692 68.2716C344.907 68.2537 345.132 68.2358 345.347 68.2178C345.795 68.182 346.243 68.1641 346.682 68.1641C346.808 68.1641 346.916 68.173 347.041 68.173C347.202 68.182 347.355 68.191 347.516 68.2089C347.642 68.2178 347.767 68.2358 347.893 68.2537C348.036 68.2716 348.18 68.2985 348.332 68.3344C348.431 68.3523 348.52 68.3792 348.61 68.4061C348.709 68.433 348.798 68.4599 348.888 68.4868C349.13 68.5675 349.372 68.6661 349.614 68.7916C350.179 70.2438 351.927 71.4629 350.448 73.2826Z" stroke="black" stroke-miterlimit="10"/>
<path d="M67.5577 164.43C64.9042 163.767 62.6541 162.422 60.7715 160.441C61.6321 160.468 62.4927 160.522 63.3623 160.504C66.0427 160.45 67.2709 161.929 67.5577 164.43Z" stroke="black" stroke-miterlimit="10"/>
<path d="M348.78 146.036C347.409 146.332 346.082 147.533 344.71 146.215C344.585 146.09 344.576 145.597 344.674 145.525C346.136 144.494 347.444 145.381 348.78 146.036Z" stroke="black" stroke-miterlimit="10"/>
<path d="M170.598 28.3359C170.553 27.4933 170.509 26.8299 170.473 26.1397C170.67 26.1397 170.885 26.0769 170.966 26.1486C171.925 27.0002 171.746 27.6726 170.598 28.3359Z" stroke="black" stroke-miterlimit="10"/>
<path d="M234.426 245.647C234.22 246.068 234.014 246.49 233.817 246.911C233.521 246.248 233.279 245.611 234.426 245.647Z" stroke="black" stroke-miterlimit="10"/>
<path d="M110.329 319.359C110.293 321.923 110.311 324.146 106.94 324.289C106.671 324.307 106.42 324.729 106.151 324.962C106.859 318.274 106.823 311.569 106.626 304.864C106.555 302.56 106.653 299.934 105.972 298.069C105.147 295.792 103.623 293.515 102.368 291.256C101.4 289.517 100.19 287.904 99.6338 285.958C100.36 285.501 100.772 284.82 100.701 283.977C100.261 277.926 102.556 272.18 102.691 266.201C109.746 264.301 109.782 264.301 109.773 271.445C109.764 287.419 110.562 303.376 110.329 319.359Z" stroke="black" stroke-miterlimit="10"/>
<path d="M51.7173 192.444C51.7532 194.568 50.6236 195.85 49.0189 196.908C46.3206 195.348 43.6222 193.797 40.9238 192.237C42.8512 191.278 42.8692 189.539 42.7795 187.746C42.403 180.1 42.0354 172.453 41.6589 164.807C44.4828 163.668 45.7648 166.546 47.997 166.913C47.8715 167.353 47.8715 167.613 47.7728 167.666C46.2309 168.455 44.1511 168.957 44.178 171.046C44.1959 173.081 46.4281 173.278 47.8177 173.986C49.261 174.721 50.283 175.94 51.6545 176.711C51.6635 181.946 51.6366 187.199 51.7173 192.444Z" stroke="black" stroke-miterlimit="10"/>
<path d="M40.9233 192.238C39.4172 191.575 37.8663 190.992 36.4678 190.131C36.1451 189.934 35.8313 189.719 35.5265 189.486H35.5176C35.5176 189.074 35.5265 188.67 35.5355 188.258C35.5445 187.89 35.5624 187.523 35.5803 187.155C35.5983 186.788 35.6252 186.42 35.652 186.053C35.67 185.685 35.6969 185.318 35.7327 184.959C35.7776 184.43 35.8224 183.892 35.8762 183.363C35.921 182.933 35.9568 182.503 36.0017 182.073C36.0465 181.58 36.1003 181.087 36.1451 180.594C36.2258 179.778 36.2975 178.962 36.3603 178.137C36.4947 176.282 36.5754 174.417 36.4947 172.553C36.432 171.154 36.432 169.765 36.3961 168.366C37.5346 166.278 38.6194 164.108 41.6494 164.825C42.0259 172.472 42.3935 180.118 42.77 187.765C42.8686 189.54 42.8597 191.279 40.9233 192.238Z" stroke="black" stroke-miterlimit="10"/>
<path d="M100.7 283.977C100.763 284.82 100.359 285.492 99.6333 285.958C99.5078 285.698 99.3912 285.429 99.2657 285.169C99.3195 285.035 99.2747 284.945 99.1313 284.901C96.5942 280.553 94.0662 276.205 91.5023 271.876C91.0182 271.06 90.4355 270.307 89.8976 269.527C89.799 269.294 89.7094 269.061 89.6197 268.828C89.5659 268.595 89.5032 268.362 89.4404 268.128C93.86 267.483 98.2796 266.847 102.69 266.201C102.565 272.171 100.27 277.917 100.7 283.977Z" stroke="black" stroke-miterlimit="10"/>
<path d="M18.5835 214.039C15.0962 212.004 11.098 210.955 7.88863 208.409C7.61969 208.194 7.15352 207.853 6.97423 207.952C4.91235 209.063 4.15932 207.441 3.02081 205.469C2.49189 208.508 2.49189 210.829 2.88634 213.044C4.21311 213.384 3.24492 211.385 4.5448 211.851C5.40541 212.165 6.05983 212.577 6.05983 213.689C6.05983 215.957 7.83484 216.701 9.55606 216.764C10.5601 216.808 10.7663 217.167 11.3311 217.723C13.0075 219.408 15.4459 221.604 17.2836 220.815C19.22 219.991 18.8793 220.896 19.2917 221.748C19.48 222.133 19.6055 222.572 20.7171 222.608C20.1344 221.255 20.6274 220.098 20.7709 218.897C21.0219 216.871 20.6633 215.249 18.5835 214.039ZM8.83888 214.809C8.4534 213.447 8.4803 212.524 8.79406 211.009C9.52916 212.47 9.94154 213.393 8.83888 214.809ZM16.1989 218.512C15.5086 219.067 14.8631 218.117 13.7605 217.588C16.432 216.764 16.432 216.647 14.1012 214.182C15.3921 214.137 16.2975 214.469 16.5306 215.589C16.7278 216.557 17.0774 217.812 16.1989 218.512Z" stroke="black" stroke-miterlimit="10"/>
<path d="M24.2765 327.337C24.0523 325.616 22.5732 325.087 21.1926 324.98C19.8031 324.872 20.5471 326.288 20.2334 326.979C20.0989 327.274 20.0899 327.687 19.2652 327.534C19.1038 325.455 19.0321 323.249 16.5848 322.03C12.3893 319.942 8.31932 317.602 4.22246 315.325C2.79708 314.527 2.54607 315.074 2.28609 316.473C1.60478 320.094 4.42865 321.286 6.63396 322.586C8.37311 323.608 10.0405 325.24 12.2638 325.132C14.6842 325.024 14.747 327.992 16.8806 328.35C18.4853 328.619 19.7134 330.457 21.3719 330.277C22.609 330.143 23.3262 330.412 24.0254 331.541C24.5723 329.928 24.4468 328.61 24.2765 327.337ZM7.39596 320.883C7.33321 320.982 6.82222 320.937 6.7505 320.82C6.35606 320.121 6.14987 319.395 7.11805 318.776C7.79937 319.601 7.83523 320.246 7.39596 320.883Z" stroke="black" stroke-miterlimit="10"/>
<path d="M18.5385 210.023C16.396 209.109 16.2705 207.325 16.4766 205.424C16.647 203.766 16.1001 202.618 14.603 201.803C11.2502 199.992 7.94227 198.092 4.6074 196.245C3.37028 195.564 2.58139 195.842 2.50071 197.356C2.46485 198.056 2.49174 198.764 2.49174 199.454C2.5276 201.166 2.11522 203.049 4.08745 204.098C5.77281 205.003 7.37749 206.106 9.1525 206.769C10.1296 207.136 11.3757 208.902 12.586 206.733C12.8728 206.213 13.7872 206.903 13.8231 207.549C13.9576 209.987 16.0553 210.453 17.6152 211.448C18.0903 211.753 18.7626 212.246 19.2198 211.502C19.6143 210.848 19.0943 210.256 18.5385 210.023ZM5.68317 202.825C4.23985 202.529 3.48682 201.498 3.69301 199.965C3.78265 199.293 3.38821 198.145 4.73291 198.423C6.19415 198.728 6.97408 199.669 6.60653 201.848C6.5886 201.91 6.97408 203.094 5.68317 202.825ZM9.03596 204.304C7.78987 204.393 7.94227 203.237 7.94227 202.421C7.94227 201.812 7.69125 200.799 8.67737 200.817C9.68141 200.835 9.61866 201.839 9.68141 202.636C9.53798 203.219 9.92346 204.241 9.03596 204.304Z" stroke="black" stroke-miterlimit="10"/>
<path d="M89.9065 269.51C89.4672 269.411 89.3597 269.196 89.6286 268.811C89.7183 269.044 89.8079 269.277 89.9065 269.51Z" stroke="black" stroke-miterlimit="10"/>
<path d="M99.2659 285.161L99.1045 285.08L99.1403 284.892C99.2748 284.936 99.3196 285.026 99.2659 285.161Z" stroke="black" stroke-miterlimit="10"/>
<path d="M358.569 230.228C358.228 230.282 357.888 230.327 357.547 230.38C356.74 230.067 356.247 230.38 356.005 231.169C354.974 231.196 353.943 231.214 352.912 231.241C352.903 228.937 352.894 226.624 352.885 224.32C353.584 223.756 354.293 223.191 354.992 222.626C356.381 222.59 357.117 221.828 357.081 220.484C356.937 215.527 357.323 210.551 356.821 205.603C356.883 204.617 357.036 203.685 358.067 203.21C359.008 202.771 359.125 201.91 359.214 201.031C359.967 200.861 361.321 201.453 361.16 200.081C361.052 199.167 359.833 199.454 359.098 199.534C357.699 199.696 356.328 199.983 354.938 200.216C353.602 200.449 352.885 199.857 352.885 198.53C352.867 183.157 351.935 167.729 353.226 152.427C354.131 141.715 357.161 131.2 359.08 120.569C360.281 113.872 359.698 107.095 359.42 100.345C359.403 99.8255 359.376 99.1173 359.053 98.8394C356.023 96.1949 357.233 92.681 357.081 89.4718C356.946 86.5763 357.099 83.6719 357.054 80.7765C357.027 79.0464 357.771 78.3024 359.492 78.0424C368.52 76.6709 377.538 75.1918 386.557 73.7754C390.205 73.2017 390.268 73.2645 390.268 76.9577C390.277 111.757 390.286 146.556 390.295 181.346C390.295 187.675 390.169 194.003 390.367 200.323C390.519 205.021 389.363 209.565 389.291 214.218C389.049 216.073 387.65 217.337 386.879 218.915C385.821 219.22 385.158 220.071 384.351 220.726C383.715 221.246 383.464 222.868 382.137 221.371C381.832 221.031 381.258 221.739 380.927 222.124C380.174 223.003 379.313 223.836 378.21 224.114C372.59 225.54 367.507 228.829 361.509 228.919C360.362 228.937 359.232 229.071 358.569 230.228Z" stroke="black" stroke-miterlimit="10"/>
<path d="M386.898 218.915C387.669 217.328 389.068 216.073 389.31 214.218C390.663 213.42 390.699 212.057 390.762 210.74C390.852 208.929 391.829 208.122 393.559 207.853C404.666 206.168 415.755 204.42 426.863 202.734C429.902 202.277 430.386 202.77 429.848 205.702C428.369 213.814 427.212 222.017 425.204 230.004C423.662 236.153 422.649 242.374 421.385 248.551C420.946 250.702 420.121 250.881 418.337 249.806C415.782 248.273 413.12 246.928 410.457 245.601C409.767 245.261 408.736 244.436 408.198 245.619C407.804 246.48 408.781 246.982 409.453 247.367C412.438 249.044 415.424 250.738 418.463 252.316C419.825 253.024 420.345 253.857 420.058 255.453C418.526 264.005 417.127 272.593 415.612 281.144C415.047 284.345 414.662 284.452 411.927 282.937C408.7 281.153 405.491 279.325 402.174 277.729C399.691 276.528 399.027 274.834 399.511 272.189C401.331 262.257 403.008 252.298 404.729 242.347C404.908 241.308 405.007 240.259 405.159 239.219C405.84 234.486 405.832 234.513 401.762 232.074C400.515 231.33 399.789 231.51 399.476 232.935C399.216 234.136 398.991 235.346 398.803 236.556C398.534 238.26 397.674 238.591 396.212 237.776C393.451 236.243 390.681 234.71 387.893 233.222C387.319 232.917 386.54 232.2 386.02 232.944C385.428 233.787 386.253 234.432 386.925 234.817C389.803 236.503 392.68 238.197 395.63 239.757C397.351 240.671 397.996 241.845 397.629 243.809C396.042 252.262 394.563 260.742 392.994 269.204C392.465 272.037 392.089 272.171 389.579 270.8C385.957 268.819 382.362 266.784 378.704 264.874C377.064 264.023 376.4 262.911 376.714 261.065C378.704 249.474 380.704 237.874 382.586 226.266C382.963 223.944 385.033 222.904 385.921 221.013C386.253 220.322 386.88 219.767 386.898 218.915Z" stroke="black" stroke-miterlimit="10"/>
<path d="M355.001 222.626C354.302 223.191 353.594 223.756 352.895 224.32C352.339 221.013 353.191 217.714 352.975 214.397C352.805 211.78 352.984 209.144 352.805 206.535C352.536 202.708 352.841 202.206 356.651 201.471C357.512 201.309 358.372 201.175 359.233 201.022C359.143 201.901 359.027 202.762 358.085 203.201C357.054 203.676 356.902 204.617 356.839 205.603C354.338 206.231 354.222 208.212 354.499 210.157C355.082 214.298 354.84 218.467 355.001 222.626Z" stroke="black" stroke-miterlimit="10"/>
<path d="M430.403 198.512C430.439 199.301 430.197 199.929 429.31 199.982C428.359 200.036 427.812 199.445 427.821 198.557C427.821 197.75 428.476 197.347 429.22 197.248C430.125 197.123 430.457 197.67 430.403 198.512Z" stroke="black" stroke-miterlimit="10"/>
<path d="M352.922 231.241C353.953 231.214 354.984 231.196 356.015 231.169C355.97 231.241 355.925 231.321 355.871 231.384C355.118 232.2 356.068 234.154 354.724 234.136C353.594 234.118 353.298 232.379 352.922 231.241Z" stroke="black" stroke-miterlimit="10"/>
<path d="M236.075 219.175C234.094 220.995 232.606 222.411 231.064 223.774C230.571 224.213 229.863 224.24 229.307 223.962C227.021 222.806 224.744 221.622 222.306 220.583C226.752 220.134 231.028 218.861 236.075 219.175Z" stroke="black" stroke-miterlimit="10"/>
<path d="M188.679 235.822C188.697 236.808 188.195 237.462 187.209 237.65C186.187 237.641 185.793 237.023 185.73 236.144C185.658 235.113 186.196 234.45 187.218 234.36C188.186 234.28 188.661 234.916 188.679 235.822Z" stroke="black" stroke-miterlimit="10"/>
<path d="M229.72 229.789C229.693 230.713 229.084 231.161 228.25 231.322C227.363 231.277 226.986 230.757 226.977 229.96C226.959 229.027 227.398 228.463 228.394 228.507C229.182 228.552 229.738 228.938 229.72 229.789Z" stroke="black" stroke-miterlimit="10"/>
<path d="M82.7885 172.785C80.9687 171.826 79.1488 170.858 77.2842 169.881C78.0551 168.742 79.0592 169.146 79.9826 169.191C81.6321 169.836 82.5554 171.046 82.7885 172.785Z" stroke="black" stroke-miterlimit="10"/>
<path d="M106.303 211.269C105.622 210.991 105.237 210.453 104.968 209.754C104.017 207.244 101.911 205.657 99.4006 206.186C97.3298 206.625 96.9174 205.63 96.6126 204.151C95.6982 199.696 94.9183 195.241 93.6184 190.857C92.8026 188.087 90.9738 185.676 90.8214 182.691C91.0007 182.646 91.18 182.601 91.3593 182.556C91.5745 181.4 93.466 181.911 93.4033 180.512C93.3226 178.531 89.1899 174.65 87.119 174.632C85.4068 174.614 83.8021 174.435 82.798 172.794C80.9782 171.835 79.1584 170.867 77.2937 169.89C78.0647 168.751 79.0687 169.155 79.9921 169.199C79.759 168.312 78.5667 167.433 79.2749 166.591C81.5609 163.839 79.0149 163.911 77.5358 163.471C75.5725 162.88 73.7616 163.301 72.2556 164.762C72.6321 165.112 72.9907 165.488 73.3941 165.802C74.1919 166.438 76.0656 166.6 75.1332 168.088C74.3085 169.406 72.7755 171.198 71.0633 170.078C68.5083 168.402 65.9803 167.693 62.9413 167.335C60.9511 167.102 58.6651 166.008 56.6301 164.977C54.9179 164.108 53.2505 163.113 51.2424 162.996C50.4804 162.951 50.068 162.396 49.5929 161.84C48.033 159.966 45.8456 159.823 44.2409 161.678C43.1921 162.889 42.4122 162.951 41.1302 162.154C39.6779 161.239 37.9477 161.248 36.2803 161.32C34.335 161.401 32.4524 161.141 30.6236 160.459C28.3645 160.809 26.5267 161.723 25.8096 164.108C29.9692 163.964 33.071 166.43 36.3969 168.366C37.5354 166.277 38.6201 164.108 41.6502 164.825C44.474 163.686 45.756 166.564 47.9882 166.932C47.8627 167.371 47.8627 167.631 47.7641 167.684C46.2221 168.473 44.1423 168.975 44.1692 171.064C44.1872 173.099 46.4194 173.296 47.8089 174.004C49.2522 174.739 50.2742 175.958 51.6458 176.729C52.7126 174.426 53.9318 172.364 57.0515 173.153C57.679 175.555 57.3294 178.029 57.5445 180.459C57.939 185.039 56.1909 189.925 59.463 194.111C59.6512 194.344 59.5347 194.792 59.6243 195.133C60.4222 198.27 57.8135 199.445 55.9757 201.022C57.0873 202.062 58.6562 200.762 59.3016 201.784C61.0049 204.483 63.8108 206.464 64.4653 209.888C64.8508 211.896 64.5101 212.81 62.2958 212.102L62.26 212.147C63.2281 213.384 64.026 214.729 64.7342 216.145C66.3837 219.408 71.0364 222.214 73.7796 221.793C84.2503 220.161 94.73 218.547 105.21 216.916C106.384 216.737 107.818 216.952 108.043 215.222C108.258 213.563 108.177 212.022 106.303 211.269ZM65.6486 191.216C65.7293 191.045 65.8369 190.893 65.9893 190.749C65.8458 190.893 65.7293 191.045 65.6486 191.216ZM72.139 204.814C72.0942 207.441 69.6827 206.742 68.0511 206.751C66.1417 206.768 66.2223 205.487 66.303 204.008C66.554 199.49 67.2085 194.963 66.3568 190.436H66.3479C66.4016 190.203 66.4734 189.97 66.5361 189.736C66.5989 189.503 66.6795 189.297 66.7602 189.082C66.9216 188.661 67.1188 188.275 67.3429 187.926C67.4236 187.809 67.5043 187.702 67.585 187.594C68.3649 186.608 69.5034 186.025 71.1977 186.052C72.9459 192.229 72.2466 198.548 72.139 204.814Z" stroke="black" stroke-miterlimit="10"/>
<path d="M104.456 234.307C104.456 237.91 104.438 241.514 104.465 245.118C104.483 246.803 103.981 247.735 102.036 247.672C100.386 247.61 98.7547 247.986 97.1142 248.327C92.4705 249.304 87.3696 246.22 86.249 241.263C85.3794 237.435 82.5556 236.064 79.6779 235.849C76.4327 235.607 75.1956 233.652 74.0122 231.51C72.9544 229.592 72.9365 227.288 72.8827 225.083C72.8558 223.98 73.4743 223.639 74.5322 223.505C83.3803 222.322 92.3091 221.838 101.112 220.26C103.3 219.865 104.429 221.022 104.438 223.236C104.447 226.929 104.438 230.614 104.438 234.307C104.447 234.307 104.456 234.307 104.456 234.307Z" stroke="black" stroke-miterlimit="10"/>
<path d="M59.5527 210.543L59.6782 210.408L59.732 210.57L59.5527 210.543Z" stroke="black" stroke-miterlimit="10"/>
<path d="M62.2953 212.085L62.2594 212.129C61.9098 211.941 61.5692 211.762 61.2285 211.583L61.2554 211.556C61.605 211.726 61.9457 211.905 62.2953 212.085Z" stroke="black" stroke-miterlimit="10"/>
<path d="M61.2285 211.584L61.2564 211.556L61.2285 211.584Z" stroke="black" stroke-miterlimit="10"/>
<path d="M72.139 204.815C72.0942 207.441 69.6827 206.742 68.0511 206.751C66.1416 206.769 66.2223 205.487 66.303 204.008C66.554 199.49 67.2084 194.963 66.3568 190.436C66.4106 190.203 66.4733 189.97 66.545 189.737C66.6168 189.504 66.6885 189.298 66.7692 189.083C66.9305 188.661 67.1277 188.276 67.3519 187.926C67.4325 187.81 67.5132 187.702 67.5939 187.594C68.3738 186.608 69.5124 186.026 71.2067 186.053C72.9458 192.229 72.2466 198.549 72.139 204.815Z" stroke="black" stroke-miterlimit="10"/>
<path d="M13.7607 217.588C16.4322 216.763 16.4322 216.647 14.1014 214.182C15.3923 214.137 16.2977 214.46 16.5308 215.58C16.737 216.557 17.0777 217.803 16.1991 218.511C15.5089 219.067 14.8634 218.117 13.7607 217.588Z" stroke="black" stroke-miterlimit="10"/>
<path d="M8.83057 214.81C8.44509 213.447 8.47198 212.515 8.78575 211.009C9.52085 212.47 9.93323 213.393 8.83057 214.81Z" stroke="black" stroke-miterlimit="10"/>
<path d="M7.1181 318.785C7.79942 319.61 7.83528 320.255 7.39601 320.892C7.33325 320.981 6.82227 320.937 6.75952 320.82C6.3561 320.112 6.14992 319.395 7.1181 318.785Z" stroke="black" stroke-miterlimit="10"/>
<path d="M6.61605 201.838C6.59812 201.91 6.97464 203.084 5.69269 202.824C4.24937 202.528 3.49634 201.497 3.70253 199.956C3.79217 199.283 3.39773 198.136 4.74243 198.414C6.19471 198.718 6.97464 199.66 6.61605 201.838Z" stroke="black" stroke-miterlimit="10"/>
<path d="M9.67316 202.636C9.53869 203.219 9.93313 204.241 9.03667 204.304C7.79058 204.393 7.94298 203.228 7.94298 202.421C7.94298 201.812 7.69197 200.799 8.66912 200.817C9.67316 200.835 9.61041 201.839 9.67316 202.636Z" stroke="black" stroke-miterlimit="10"/>
<path d="M355.002 222.627C354.84 218.467 355.082 214.299 354.491 210.157C354.213 208.212 354.338 206.24 356.83 205.604C357.332 210.561 356.947 215.527 357.081 220.484C357.126 221.829 356.391 222.591 355.002 222.627Z" stroke="black" stroke-miterlimit="10"/>
</g>
<defs>
<clipPath id="clip0_160_1532">
<rect width="450" height="366" fill="white"/>
</clipPath>
</defs>
</svg>
